<svg width="231" height="69" viewBox="0 0 231 69" fill="none" xmlns="http://www.w3.org/2000/svg">
<path d="M62.4276 58V13.1567H78.4118C81.886 13.1567 84.769 13.7552 87.0608 14.9522C89.3672 16.1491 91.0897 17.806 92.2283 19.9226C93.3669 22.0246 93.9362 24.4551 93.9362 27.214C93.9362 29.9583 93.3596 32.3742 92.2064 34.4616C91.0678 36.5345 89.3453 38.1475 87.0389 39.3007C84.7471 40.4539 81.8641 41.0305 78.3899 41.0305H66.2813V35.2061H77.7768C79.9664 35.2061 81.7473 34.8923 83.1195 34.2646C84.5062 33.6369 85.5208 32.7245 86.163 31.5275C86.8053 30.3306 87.1265 28.8927 87.1265 27.214C87.1265 25.5207 86.798 24.0537 86.1412 22.8129C85.4989 21.5721 84.4843 20.6233 83.0976 19.9664C81.7254 19.2949 79.9226 18.9592 77.6892 18.9592H69.1935V58H62.4276ZM84.5646 37.768L95.6441 58H87.9366L77.0761 37.768H84.5646ZM122.949 44.0521V24.3675H129.517V58H123.08V52.1756H122.73C121.956 53.9711 120.715 55.4673 119.007 56.6643C117.314 57.8467 115.205 58.4379 112.679 58.4379C110.519 58.4379 108.607 57.9635 106.942 57.0147C105.293 56.0512 103.994 54.628 103.045 52.7449C102.111 50.8619 101.644 48.5336 101.644 45.76V24.3675H108.191V44.9718C108.191 47.2636 108.826 49.0883 110.096 50.4458C111.366 51.8034 113.015 52.4822 115.044 52.4822C116.27 52.4822 117.489 52.1756 118.701 51.5625C119.927 50.9494 120.941 50.0225 121.744 48.7817C122.562 47.5409 122.963 45.9644 122.949 44.0521ZM144.861 38.0307V58H138.314V24.3675H144.598V29.8415H145.014C145.788 28.0607 147 26.6301 148.649 25.5499C150.313 24.4697 152.408 23.9296 154.933 23.9296C157.225 23.9296 159.232 24.4113 160.955 25.3747C162.677 26.3236 164.013 27.7395 164.962 29.6226C165.911 31.5057 166.385 33.8339 166.385 36.6075V58H159.838V37.3957C159.838 34.9579 159.203 33.053 157.933 31.6808C156.663 30.2941 154.919 29.6007 152.7 29.6007C151.182 29.6007 149.832 29.9291 148.649 30.586C147.481 31.2429 146.554 32.2063 145.868 33.4763C145.197 34.7317 144.861 36.2498 144.861 38.0307ZM187.756 58.6569C185.041 58.6569 182.617 57.9635 180.486 56.5767C178.37 55.1754 176.705 53.1828 175.494 50.5991C174.297 48.0008 173.698 44.8842 173.698 41.2494C173.698 37.6147 174.304 34.5054 175.516 31.9217C176.742 29.3379 178.421 27.36 180.552 25.9878C182.683 24.6157 185.099 23.9296 187.8 23.9296C189.887 23.9296 191.566 24.2799 192.836 24.9806C194.12 25.6667 195.113 26.4695 195.814 27.3892C196.529 28.3088 197.084 29.119 197.478 29.8196H197.872V13.1567H204.419V58H198.025V52.7668H197.478C197.084 53.4821 196.514 54.2995 195.77 55.2192C195.04 56.1388 194.033 56.9417 192.748 57.6278C191.463 58.3138 189.799 58.6569 187.756 58.6569ZM189.201 53.0734C191.084 53.0734 192.675 52.5771 193.974 51.5844C195.288 50.5772 196.281 49.1831 196.952 47.4023C197.638 45.6214 197.981 43.5485 197.981 41.1838C197.981 38.8482 197.646 36.8045 196.974 35.0528C196.303 33.3011 195.317 31.9363 194.018 30.9582C192.719 29.9802 191.113 29.4912 189.201 29.4912C187.23 29.4912 185.588 30.0021 184.274 31.0239C182.96 32.0458 181.968 33.4398 181.296 35.2061C180.639 36.9724 180.311 38.9649 180.311 41.1838C180.311 43.4318 180.647 45.4535 181.318 47.249C181.99 49.0445 182.982 50.4677 184.296 51.5187C185.625 52.5552 187.259 53.0734 189.201 53.0734Z" fill="white"/>
<path d="M31.5725 35.2843C31.9895 35.2843 32.3264 34.9474 32.3264 34.5312C32.3264 34.1149 31.9895 33.7772 31.5725 33.7772C31.1571 33.7772 30.8193 34.1149 30.8193 34.5312C30.8193 34.9474 31.1571 35.2843 31.5725 35.2843Z" fill="white"/>
<path d="M31.3515 37.245C31.7639 37.245 32.0985 36.9104 32.0985 36.498C32.0985 36.0848 31.7639 35.7501 31.3515 35.7501C30.9383 35.7501 30.6036 36.0848 30.6036 36.498C30.6036 36.9104 30.9383 37.245 31.3515 37.245Z" fill="white"/>
<path d="M30.6973 39.1076C31.1066 39.1076 31.439 38.776 31.439 38.3659C31.439 37.9565 31.1066 37.6249 30.6973 37.6249C30.2879 37.6249 29.9563 37.9565 29.9563 38.3659C29.9563 38.776 30.2879 39.1076 30.6973 39.1076Z" fill="white"/>
<path d="M29.6448 40.7708C30.0473 40.7708 30.3736 40.4445 30.3736 40.042C30.3736 39.6395 30.0473 39.3125 29.6448 39.3125C29.2423 39.3125 28.916 39.6395 28.916 40.042C28.916 40.4445 29.2423 40.7708 29.6448 40.7708Z" fill="white"/>
<path d="M28.2451 42.1584C28.6408 42.1584 28.9617 41.8375 28.9617 41.4418C28.9617 41.0454 28.6408 40.7245 28.2451 40.7245C27.8495 40.7245 27.5286 41.0454 27.5286 41.4418C27.5286 41.8375 27.8495 42.1584 28.2451 42.1584Z" fill="white"/>
<path d="M26.5694 43.1866C26.9513 43.1866 27.2616 42.8771 27.2616 42.4944C27.2616 42.1118 26.9513 41.8022 26.5694 41.8022C26.1867 41.8022 25.8765 42.1118 25.8765 42.4944C25.8765 42.8771 26.1867 43.1866 26.5694 43.1866Z" fill="white"/>
<path d="M24.701 43.8165C25.07 43.8165 25.3688 43.517 25.3688 43.1488C25.3688 42.7798 25.07 42.481 24.701 42.481C24.332 42.481 24.0332 42.7798 24.0332 43.1488C24.0332 43.517 24.332 43.8165 24.701 43.8165Z" fill="white"/>
<path d="M22.7342 44.0131C23.0895 44.0131 23.3776 43.7257 23.3776 43.3697C23.3776 43.0145 23.0895 42.7263 22.7342 42.7263C22.379 42.7263 22.0908 43.0145 22.0908 43.3697C22.0908 43.7257 22.379 44.0131 22.7342 44.0131Z" fill="white"/>
<path d="M20.7676 43.7606C21.106 43.7606 21.3805 43.4869 21.3805 43.1484C21.3805 42.81 21.106 42.5355 20.7676 42.5355C20.4291 42.5355 20.1547 42.81 20.1547 43.1484C20.1547 43.4869 20.4291 43.7606 20.7676 43.7606Z" fill="white"/>
<path d="M18.899 43.0891C19.2276 43.0891 19.4936 42.8231 19.4936 42.4945C19.4936 42.166 19.2276 41.8999 18.899 41.8999C18.5712 41.8999 18.3052 42.166 18.3052 42.4945C18.3052 42.8231 18.5712 43.0891 18.899 43.0891Z" fill="white"/>
<path d="M17.2233 42.0173C17.5412 42.0173 17.7996 41.7597 17.7996 41.4418C17.7996 41.1231 17.5412 40.8655 17.2233 40.8655C16.9054 40.8655 16.647 41.1231 16.647 41.4418C16.647 41.7597 16.9054 42.0173 17.2233 42.0173Z" fill="white"/>
<path d="M15.8238 40.5993C16.1317 40.5993 16.381 40.35 16.381 40.042C16.381 39.734 16.1317 39.484 15.8238 39.484C15.5158 39.484 15.2657 39.734 15.2657 40.042C15.2657 40.35 15.5158 40.5993 15.8238 40.5993Z" fill="white"/>
<path d="M14.7709 38.9056C15.0682 38.9056 15.3099 38.6639 15.3099 38.3659C15.3099 38.0686 15.0682 37.8269 14.7709 37.8269C14.4729 37.8269 14.2312 38.0686 14.2312 38.3659C14.2312 38.6639 14.4729 38.9056 14.7709 38.9056Z" fill="white"/>
<path d="M14.117 37.0312C14.412 37.0312 14.6506 36.7926 14.6506 36.4983C14.6506 36.2041 14.412 35.9655 14.117 35.9655C13.8227 35.9655 13.5841 36.2041 13.5841 36.4983C13.5841 36.7926 13.8227 37.0312 14.117 37.0312Z" fill="white"/>
<path d="M13.8961 35.0639C14.1903 35.0639 14.4289 34.8253 14.4289 34.531C14.4289 34.2368 14.1903 33.9982 13.8961 33.9982C13.601 33.9982 13.3624 34.2368 13.3624 34.531C13.3624 34.8253 13.601 35.0639 13.8961 35.0639Z" fill="white"/>
<path d="M14.117 33.0974C14.412 33.0974 14.6506 32.8588 14.6506 32.5645C14.6506 32.2703 14.412 32.0309 14.117 32.0309C13.8227 32.0309 13.5841 32.2703 13.5841 32.5645C13.5841 32.8588 13.8227 33.0974 14.117 33.0974Z" fill="white"/>
<path d="M14.7709 31.2349C15.0682 31.2349 15.3099 30.994 15.3099 30.6959C15.3099 30.3986 15.0682 30.157 14.7709 30.157C14.4729 30.157 14.2312 30.3986 14.2312 30.6959C14.2312 30.994 14.4729 31.2349 14.7709 31.2349Z" fill="white"/>
<path d="M15.8238 29.5777C16.1317 29.5777 16.381 29.3284 16.381 29.0204C16.381 28.7124 16.1317 28.4624 15.8238 28.4624C15.5158 28.4624 15.2657 28.7124 15.2657 29.0204C15.2657 29.3284 15.5158 29.5777 15.8238 29.5777Z" fill="white"/>
<path d="M17.2233 28.1964C17.5412 28.1964 17.7996 27.9388 17.7996 27.6209C17.7996 27.303 17.5412 27.0446 17.2233 27.0446C16.9054 27.0446 16.647 27.303 16.647 27.6209C16.647 27.9388 16.9054 28.1964 17.2233 28.1964Z" fill="white"/>
<path d="M18.899 27.1619C19.2276 27.1619 19.4936 26.8958 19.4936 26.568C19.4936 26.2394 19.2276 25.9734 18.899 25.9734C18.5712 25.9734 18.3052 26.2394 18.3052 26.568C18.3052 26.8958 18.5712 27.1619 18.899 27.1619Z" fill="white"/>
<path d="M20.7676 26.527C21.106 26.527 21.3805 26.2525 21.3805 25.9141C21.3805 25.5756 21.106 25.3011 20.7676 25.3011C20.4291 25.3011 20.1547 25.5756 20.1547 25.9141C20.1547 26.2525 20.4291 26.527 20.7676 26.527Z" fill="white"/>
<path d="M22.7342 26.3355C23.0895 26.3355 23.3776 26.0474 23.3776 25.6921C23.3776 25.3369 23.0895 25.0487 22.7342 25.0487C22.379 25.0487 22.0908 25.3369 22.0908 25.6921C22.0908 26.0474 22.379 26.3355 22.7342 26.3355Z" fill="white"/>
<path d="M24.701 26.5816C25.07 26.5816 25.3688 26.2827 25.3688 25.9138C25.3688 25.5448 25.07 25.246 24.701 25.246C24.332 25.246 24.0332 25.5448 24.0332 25.9138C24.0332 26.2827 24.332 26.5816 24.701 26.5816Z" fill="white"/>
<path d="M26.5694 27.2603C26.9513 27.2603 27.2616 26.95 27.2616 26.5681C27.2616 26.1854 26.9513 25.8751 26.5694 25.8751C26.1867 25.8751 25.8765 26.1854 25.8765 26.5681C25.8765 26.95 26.1867 27.2603 26.5694 27.2603Z" fill="white"/>
<path d="M28.2451 28.3374C28.6408 28.3374 28.9617 28.0164 28.9617 27.6208C28.9617 27.2244 28.6408 26.9034 28.2451 26.9034C27.8495 26.9034 27.5286 27.2244 27.5286 27.6208C27.5286 28.0164 27.8495 28.3374 28.2451 28.3374Z" fill="white"/>
<path d="M29.6448 29.7495C30.0473 29.7495 30.3736 29.4232 30.3736 29.0207C30.3736 28.6182 30.0473 28.2911 29.6448 28.2911C29.2423 28.2911 28.916 28.6182 28.916 29.0207C28.916 29.4232 29.2423 29.7495 29.6448 29.7495Z" fill="white"/>
<path d="M30.6973 31.4378C31.1066 31.4378 31.439 31.1054 31.439 30.6961C31.439 30.2867 31.1066 29.9551 30.6973 29.9551C30.2879 29.9551 29.9563 30.2867 29.9563 30.6961C29.9563 31.1054 30.2879 31.4378 30.6973 31.4378Z" fill="white"/>
<path d="M31.3515 33.3116C31.7639 33.3116 32.0985 32.9769 32.0985 32.5645C32.0985 32.1513 31.7639 31.8167 31.3515 31.8167C30.9383 31.8167 30.6036 32.1513 30.6036 32.5645C30.6036 32.9769 30.9383 33.3116 31.3515 33.3116Z" fill="white"/>
<path d="M33.0784 31.4208C33.5045 31.4208 33.8506 31.0754 33.8506 30.6485C33.8506 30.2224 33.5045 29.8771 33.0784 29.8771C32.6515 29.8771 32.3062 30.2224 32.3062 30.6485C32.3062 31.0754 32.6515 31.4208 33.0784 31.4208Z" fill="white"/>
<path d="M33.6049 33.3364C34.0348 33.3364 34.3832 32.9881 34.3832 32.5581C34.3832 32.1282 34.0348 31.7798 33.6049 31.7798C33.1749 31.7798 32.8265 32.1282 32.8265 32.5581C32.8265 32.9881 33.1749 33.3364 33.6049 33.3364Z" fill="white"/>
<path d="M32.219 29.624C32.6383 29.624 32.9783 29.284 32.9783 28.864C32.9783 28.4447 32.6383 28.1047 32.219 28.1047C31.799 28.1047 31.459 28.4447 31.459 28.864C31.459 29.284 31.799 29.624 32.219 29.624Z" fill="white"/>
<path d="M31.0544 28.0099C31.4675 28.0099 31.8022 27.6753 31.8022 27.2621C31.8022 26.8497 31.4675 26.515 31.0544 26.515C30.6419 26.515 30.3065 26.8497 30.3065 27.2621C30.3065 27.6753 30.6419 28.0099 31.0544 28.0099Z" fill="white"/>
<path d="M29.6226 26.622C30.0259 26.622 30.3521 26.2957 30.3521 25.8932C30.3521 25.49 30.0259 25.1637 29.6226 25.1637C29.2201 25.1637 28.8938 25.49 28.8938 25.8932C28.8938 26.2957 29.2201 26.622 29.6226 26.622Z" fill="white"/>
<path d="M27.9696 25.513C28.3615 25.513 28.6801 25.1944 28.6801 24.8018C28.6801 24.4092 28.3615 24.0913 27.9696 24.0913C27.577 24.0913 27.2592 24.4092 27.2592 24.8018C27.2592 25.1944 27.577 25.513 27.9696 25.513Z" fill="white"/>
<path d="M26.1485 24.7096C26.5274 24.7096 26.8346 24.4024 26.8346 24.0235C26.8346 23.6446 26.5274 23.3374 26.1485 23.3374C25.7689 23.3374 25.4617 23.6446 25.4617 24.0235C25.4617 24.4024 25.7689 24.7096 26.1485 24.7096Z" fill="white"/>
<path d="M24.217 24.2445C24.5829 24.2445 24.8787 23.948 24.8787 23.5828C24.8787 23.2169 24.5829 22.9211 24.217 22.9211C23.8518 22.9211 23.556 23.2169 23.556 23.5828C23.556 23.948 23.8518 24.2445 24.217 24.2445Z" fill="white"/>
<path d="M22.2386 24.1308C22.59 24.1308 22.8759 23.8457 22.8759 23.4935C22.8759 23.1421 22.59 22.8562 22.2386 22.8562C21.8864 22.8562 21.6013 23.1421 21.6013 23.4935C21.6013 23.8457 21.8864 24.1308 22.2386 24.1308Z" fill="white"/>
<path d="M20.2758 24.3665C20.6104 24.3665 20.8826 24.0951 20.8826 23.7596C20.8826 23.425 20.6104 23.1528 20.2758 23.1528C19.9403 23.1528 19.6689 23.425 19.6689 23.7596C19.6689 24.0951 19.9403 24.3665 20.2758 24.3665Z" fill="white"/>
<path d="M18.3921 24.9605C18.7168 24.9605 18.9798 24.6967 18.9798 24.372C18.9798 24.0472 18.7168 23.7834 18.3921 23.7834C18.0673 23.7834 17.8036 24.0472 17.8036 24.372C17.8036 24.6967 18.0673 24.9605 18.3921 24.9605Z" fill="white"/>
<path d="M16.648 25.8804C16.9621 25.8804 17.2174 25.625 17.2174 25.3102C17.2174 24.9953 16.9621 24.7407 16.648 24.7407C16.3331 24.7407 16.0778 24.9953 16.0778 25.3102C16.0778 25.625 16.3331 25.8804 16.648 25.8804Z" fill="white"/>
<path d="M15.0989 27.091C15.4 27.091 15.6447 26.8463 15.6447 26.5452C15.6447 26.2441 15.4 26.0001 15.0989 26.0001C14.7978 26.0001 14.5538 26.2441 14.5538 26.5452C14.5538 26.8463 14.7978 27.091 15.0989 27.091Z" fill="white"/>
<path d="M13.7959 28.5638C14.0871 28.5638 14.3227 28.3282 14.3227 28.037C14.3227 27.7458 14.0871 27.5103 13.7959 27.5103C13.5047 27.5103 13.2692 27.7458 13.2692 28.037C13.2692 28.3282 13.5047 28.5638 13.7959 28.5638Z" fill="white"/>
<path d="M12.7798 30.2584C13.0672 30.2584 13.3005 30.0251 13.3005 29.737C13.3005 29.4496 13.0672 29.2163 12.7798 29.2163C12.4924 29.2163 12.2592 29.4496 12.2592 29.737C12.2592 30.0251 12.4924 30.2584 12.7798 30.2584Z" fill="white"/>
<path d="M12.0839 32.1001C12.3644 32.1001 12.5924 31.8729 12.5924 31.5916C12.5924 31.3111 12.3644 31.0831 12.0839 31.0831C11.8034 31.0831 11.5754 31.3111 11.5754 31.5916C11.5754 31.8729 11.8034 32.1001 12.0839 32.1001Z" fill="white"/>
<path d="M11.7302 34.0494C12.0107 34.0494 12.2394 33.8215 12.2394 33.5409C12.2394 33.2596 12.0107 33.0325 11.7302 33.0325C11.4496 33.0325 11.2217 33.2596 11.2217 33.5409C11.2217 33.8215 11.4496 34.0494 11.7302 34.0494Z" fill="white"/>
<path d="M11.7302 36.03C12.0107 36.03 12.2394 35.8021 12.2394 35.5215C12.2394 35.241 12.0107 35.0131 11.7302 35.0131C11.4496 35.0131 11.2217 35.241 11.2217 35.5215C11.2217 35.8021 11.4496 36.03 11.7302 36.03Z" fill="white"/>
<path d="M12.0839 37.9794C12.3644 37.9794 12.5924 37.7514 12.5924 37.4709C12.5924 37.1896 12.3644 36.9617 12.0839 36.9617C11.8034 36.9617 11.5754 37.1896 11.5754 37.4709C11.5754 37.7514 11.8034 37.9794 12.0839 37.9794Z" fill="white"/>
<path d="M12.7798 39.8454C13.0672 39.8454 13.3005 39.6121 13.3005 39.3247C13.3005 39.0373 13.0672 38.8041 12.7798 38.8041C12.4924 38.8041 12.2592 39.0373 12.2592 39.3247C12.2592 39.6121 12.4924 39.8454 12.7798 39.8454Z" fill="white"/>
<path d="M13.7959 41.5522C14.0871 41.5522 14.3227 41.3159 14.3227 41.0254C14.3227 40.7342 14.0871 40.4987 13.7959 40.4987C13.5047 40.4987 13.2692 40.7342 13.2692 41.0254C13.2692 41.3159 13.5047 41.5522 13.7959 41.5522Z" fill="white"/>
<path d="M15.0989 43.0621C15.4 43.0621 15.6447 42.8174 15.6447 42.5162C15.6447 42.2151 15.4 41.9712 15.0989 41.9712C14.7978 41.9712 14.5538 42.2151 14.5538 42.5162C14.5538 42.8174 14.7978 43.0621 15.0989 43.0621Z" fill="white"/>
<path d="M16.648 44.3218C16.9621 44.3218 17.2174 44.0664 17.2174 43.7516C17.2174 43.4375 16.9621 43.1821 16.648 43.1821C16.3331 43.1821 16.0778 43.4375 16.0778 43.7516C16.0778 44.0664 16.3331 44.3218 16.648 44.3218Z" fill="white"/>
<path d="M18.3921 45.2784C18.7168 45.2784 18.9798 45.0154 18.9798 44.6907C18.9798 44.3659 18.7168 44.1022 18.3921 44.1022C18.0673 44.1022 17.8036 44.3659 17.8036 44.6907C17.8036 45.0154 18.0673 45.2784 18.3921 45.2784Z" fill="white"/>
<path d="M20.2758 45.909C20.6104 45.909 20.8826 45.6376 20.8826 45.303C20.8826 44.9676 20.6104 44.6962 20.2758 44.6962C19.9403 44.6962 19.6689 44.9676 19.6689 45.303C19.6689 45.6376 19.9403 45.909 20.2758 45.909Z" fill="white"/>
<path d="M22.2386 46.2052C22.59 46.2052 22.8759 45.9201 22.8759 45.5679C22.8759 45.2165 22.59 44.9314 22.2386 44.9314C21.8864 44.9314 21.6013 45.2165 21.6013 45.5679C21.6013 45.9201 21.8864 46.2052 22.2386 46.2052Z" fill="white"/>
<path d="M24.217 46.1417C24.5829 46.1417 24.8787 45.8451 24.8787 45.48C24.8787 45.1148 24.5829 44.8175 24.217 44.8175C23.8518 44.8175 23.556 45.1148 23.556 45.48C23.556 45.8451 23.8518 46.1417 24.217 46.1417Z" fill="white"/>
<path d="M26.1485 45.725C26.5274 45.725 26.8346 45.4178 26.8346 45.0381C26.8346 44.6593 26.5274 44.3521 26.1485 44.3521C25.7689 44.3521 25.4617 44.6593 25.4617 45.0381C25.4617 45.4178 25.7689 45.725 26.1485 45.725Z" fill="white"/>
<path d="M27.9696 44.9713C28.3615 44.9713 28.6801 44.6526 28.6801 44.26C28.6801 43.8682 28.3615 43.5496 27.9696 43.5496C27.577 43.5496 27.2592 43.8682 27.2592 44.26C27.2592 44.6526 27.577 44.9713 27.9696 44.9713Z" fill="white"/>
<path d="M29.6226 43.8985C30.0259 43.8985 30.3521 43.5715 30.3521 43.169C30.3521 42.7665 30.0259 42.4402 29.6226 42.4402C29.2201 42.4402 28.8938 42.7665 28.8938 43.169C28.8938 43.5715 29.2201 43.8985 29.6226 43.8985Z" fill="white"/>
<path d="M31.0544 42.5478C31.4675 42.5478 31.8022 42.2131 31.8022 41.8007C31.8022 41.3875 31.4675 41.0529 31.0544 41.0529C30.6419 41.0529 30.3065 41.3875 30.3065 41.8007C30.3065 42.2131 30.6419 42.5478 31.0544 42.5478Z" fill="white"/>
<path d="M32.219 40.9577C32.6383 40.9577 32.9783 40.6177 32.9783 40.1976C32.9783 39.7784 32.6383 39.4384 32.219 39.4384C31.799 39.4384 31.459 39.7784 31.459 40.1976C31.459 40.6177 31.799 40.9577 32.219 40.9577Z" fill="white"/>
<path d="M33.0784 39.1853C33.5045 39.1853 33.8506 38.84 33.8506 38.4131C33.8506 37.9869 33.5045 37.6416 33.0784 37.6416C32.6515 37.6416 32.3062 37.9869 32.3062 38.4131C32.3062 38.84 32.6515 39.1853 33.0784 39.1853Z" fill="white"/>
<path d="M33.6049 37.2817C34.0348 37.2817 34.3832 36.9333 34.3832 36.5042C34.3832 36.0742 34.0348 35.7258 33.6049 35.7258C33.1749 35.7258 32.8265 36.0742 32.8265 36.5042C32.8265 36.9333 33.1749 37.2817 33.6049 37.2817Z" fill="white"/>
<path d="M33.7826 35.3158C34.2156 35.3158 34.567 34.9644 34.567 34.5314C34.567 34.0984 34.2156 33.7469 33.7826 33.7469C33.3496 33.7469 32.9982 34.0984 32.9982 34.5314C32.9982 34.9644 33.3496 35.3158 33.7826 35.3158Z" fill="white"/>
<path d="M35.4034 31.4255C35.8471 31.4255 36.2062 31.0664 36.2062 30.6235C36.2062 30.1798 35.8471 29.8208 35.4034 29.8208C34.9598 29.8208 34.6007 30.1798 34.6007 30.6235C34.6007 31.0664 34.9598 31.4255 35.4034 31.4255Z" fill="white"/>
<path d="M35.8438 33.358C36.2875 33.358 36.6466 32.9982 36.6466 32.5553C36.6466 32.1116 36.2875 31.7526 35.8438 31.7526C35.4009 31.7526 35.0419 32.1116 35.0419 32.5553C35.0419 32.9982 35.4009 33.358 35.8438 33.358Z" fill="white"/>
<path d="M34.6798 29.5693C35.1159 29.5693 35.4696 29.2149 35.4696 28.7788C35.4696 28.342 35.1159 27.9883 34.6798 27.9883C34.243 27.9883 33.8885 28.342 33.8885 28.7788C33.8885 29.2149 34.243 29.5693 34.6798 29.5693Z" fill="white"/>
<path d="M33.6888 27.8404C34.118 27.8404 34.4672 27.4921 34.4672 27.0629C34.4672 26.6329 34.118 26.2845 33.6888 26.2845C33.2589 26.2845 32.9105 26.6329 32.9105 27.0629C32.9105 27.4921 33.2589 27.8404 33.6888 27.8404Z" fill="white"/>
<path d="M32.453 26.2791C32.8761 26.2791 33.2191 25.936 33.2191 25.5129C33.2191 25.0906 32.8761 24.7476 32.453 24.7476C32.0299 24.7476 31.6869 25.0906 31.6869 25.5129C31.6869 25.936 32.0299 26.2791 32.453 26.2791Z" fill="white"/>
<path d="M31.0008 24.9131C31.4132 24.9131 31.7479 24.5785 31.7479 24.1653C31.7479 23.7529 31.4132 23.4182 31.0008 23.4182C30.5876 23.4182 30.2529 23.7529 30.2529 24.1653C30.2529 24.5785 30.5876 24.9131 31.0008 24.9131Z" fill="white"/>
<path d="M29.3633 23.7788C29.7658 23.7788 30.0921 23.4517 30.0921 23.0492C30.0921 22.6467 29.7658 22.3204 29.3633 22.3204C28.9608 22.3204 28.6338 22.6467 28.6338 23.0492C28.6338 23.4517 28.9608 23.7788 29.3633 23.7788Z" fill="white"/>
<path d="M27.5779 22.8943C27.9667 22.8943 28.2823 22.5787 28.2823 22.1891C28.2823 21.8004 27.9667 21.4847 27.5779 21.4847C27.1884 21.4847 26.8735 21.8004 26.8735 22.1891C26.8735 22.5787 27.1884 22.8943 27.5779 22.8943Z" fill="white"/>
<path d="M25.6844 22.2854C26.0602 22.2854 26.3644 21.9812 26.3644 21.6054C26.3644 21.2296 26.0602 20.9254 25.6844 20.9254C25.3086 20.9254 25.0044 21.2296 25.0044 21.6054C25.0044 21.9812 25.3086 22.2854 25.6844 22.2854Z" fill="white"/>
<path d="M23.7252 21.9599C24.0835 21.9599 24.3747 21.6687 24.3747 21.3104C24.3747 20.9513 24.0835 20.6609 23.7252 20.6609C23.3661 20.6609 23.0757 20.9513 23.0757 21.3104C23.0757 21.6687 23.3661 21.9599 23.7252 21.9599Z" fill="white"/>
<path d="M21.7431 21.9416C22.0915 21.9416 22.3743 21.6588 22.3743 21.3104C22.3743 20.9613 22.0915 20.6792 21.7431 20.6792C21.3948 20.6792 21.1119 20.9613 21.1119 21.3104C21.1119 21.6588 21.3948 21.9416 21.7431 21.9416Z" fill="white"/>
<path d="M19.7838 22.2061C20.1154 22.2061 20.3845 21.937 20.3845 21.6053C20.3845 21.2737 20.1154 21.0046 19.7838 21.0046C19.4522 21.0046 19.1831 21.2737 19.1831 21.6053C19.1831 21.937 19.4522 22.2061 19.7838 22.2061Z" fill="white"/>
<path d="M17.8905 22.7717C18.2122 22.7717 18.4722 22.511 18.4722 22.1893C18.4722 21.8684 18.2122 21.6077 17.8905 21.6077C17.5688 21.6077 17.3081 21.8684 17.3081 22.1893C17.3081 22.511 17.5688 22.7717 17.8905 22.7717Z" fill="white"/>
<path d="M16.1051 23.6133C16.4161 23.6133 16.6692 23.361 16.6692 23.0492C16.6692 22.7382 16.4161 22.4858 16.1051 22.4858C15.7941 22.4858 15.5417 22.7382 15.5417 23.0492C15.5417 23.361 15.7941 23.6133 16.1051 23.6133Z" fill="white"/>
<path d="M14.4677 24.7049C14.7657 24.7049 15.0066 24.4632 15.0066 24.1652C15.0066 23.8679 14.7657 23.6262 14.4677 23.6262C14.1704 23.6262 13.9287 23.8679 13.9287 24.1652C13.9287 24.4632 14.1704 24.7049 14.4677 24.7049Z" fill="white"/>
<path d="M13.0155 26.0345C13.3029 26.0345 13.5362 25.8013 13.5362 25.5131C13.5362 25.2257 13.3029 24.9924 13.0155 24.9924C12.7281 24.9924 12.4949 25.2257 12.4949 25.5131C12.4949 25.8013 12.7281 26.0345 13.0155 26.0345Z" fill="white"/>
<path d="M11.7797 27.5714C12.061 27.5714 12.2882 27.3434 12.2882 27.0629C12.2882 26.7816 12.061 26.5544 11.7797 26.5544C11.4992 26.5544 11.2712 26.7816 11.2712 27.0629C11.2712 27.3434 11.4992 27.5714 11.7797 27.5714Z" fill="white"/>
<path d="M10.7894 29.275C11.063 29.275 11.2856 29.0524 11.2856 28.7787C11.2856 28.5043 11.063 28.2825 10.7894 28.2825C10.5149 28.2825 10.2931 28.5043 10.2931 28.7787C10.2931 29.0524 10.5149 29.275 10.7894 29.275Z" fill="white"/>
<path d="M10.0654 31.1067C10.3329 31.1067 10.5494 30.8902 10.5494 30.6234C10.5494 30.3558 10.3329 30.1385 10.0654 30.1385C9.7978 30.1385 9.5813 30.3558 9.5813 30.6234C9.5813 30.8902 9.7978 31.1067 10.0654 31.1067Z" fill="white"/>
<path d="M9.62458 33.0332C9.88835 33.0332 10.1026 32.819 10.1026 32.5552C10.1026 32.2907 9.88835 32.0773 9.62458 32.0773C9.36006 32.0773 9.14661 32.2907 9.14661 32.5552C9.14661 32.819 9.36006 33.0332 9.62458 33.0332Z" fill="white"/>
<path d="M9.47602 35.0092C9.74055 35.0092 9.95399 34.795 9.95399 34.5312C9.95399 34.2674 9.74055 34.0532 9.47602 34.0532C9.21226 34.0532 8.99805 34.2674 8.99805 34.5312C8.99805 34.795 9.21226 35.0092 9.47602 35.0092Z" fill="white"/>
<path d="M9.62458 36.9854C9.88835 36.9854 10.1026 36.7712 10.1026 36.5074C10.1026 36.2436 9.88835 36.0294 9.62458 36.0294C9.36006 36.0294 9.14661 36.2436 9.14661 36.5074C9.14661 36.7712 9.36006 36.9854 9.62458 36.9854Z" fill="white"/>
<path d="M10.0654 38.923C10.3329 38.923 10.5494 38.7065 10.5494 38.4389C10.5494 38.1713 10.3329 37.9548 10.0654 37.9548C9.7978 37.9548 9.5813 38.1713 9.5813 38.4389C9.5813 38.7065 9.7978 38.923 10.0654 38.923Z" fill="white"/>
<path d="M10.7894 40.7801C11.063 40.7801 11.2856 40.5575 11.2856 40.2839C11.2856 40.0094 11.063 39.7876 10.7894 39.7876C10.5149 39.7876 10.2931 40.0094 10.2931 40.2839C10.2931 40.5575 10.5149 40.7801 10.7894 40.7801Z" fill="white"/>
<path d="M11.7797 42.508C12.061 42.508 12.2882 42.2801 12.2882 41.9996C12.2882 41.7183 12.061 41.4911 11.7797 41.4911C11.4992 41.4911 11.2712 41.7183 11.2712 41.9996C11.2712 42.2801 11.4992 42.508 11.7797 42.508Z" fill="white"/>
<path d="M13.0155 44.0703C13.3029 44.0703 13.5362 43.837 13.5362 43.5489C13.5362 43.2615 13.3029 43.0282 13.0155 43.0282C12.7281 43.0282 12.4949 43.2615 12.4949 43.5489C12.4949 43.837 12.7281 44.0703 13.0155 44.0703Z" fill="white"/>
<path d="M14.4677 45.4364C14.7657 45.4364 15.0066 45.1947 15.0066 44.8966C15.0066 44.5986 14.7657 44.3577 14.4677 44.3577C14.1704 44.3577 13.9287 44.5986 13.9287 44.8966C13.9287 45.1947 14.1704 45.4364 14.4677 45.4364Z" fill="white"/>
<path d="M16.1051 46.5767C16.4161 46.5767 16.6692 46.3244 16.6692 46.0133C16.6692 45.7015 16.4161 45.4492 16.1051 45.4492C15.7941 45.4492 15.5417 45.7015 15.5417 46.0133C15.5417 46.3244 15.7941 46.5767 16.1051 46.5767Z" fill="white"/>
<path d="M17.8905 47.4548C18.2122 47.4548 18.4722 47.1941 18.4722 46.8724C18.4722 46.5507 18.2122 46.2908 17.8905 46.2908C17.5688 46.2908 17.3081 46.5507 17.3081 46.8724C17.3081 47.1941 17.5688 47.4548 17.8905 47.4548Z" fill="white"/>
<path d="M19.7838 48.057C20.1154 48.057 20.3845 47.7879 20.3845 47.457C20.3845 47.1247 20.1154 46.8563 19.7838 46.8563C19.4522 46.8563 19.1831 47.1247 19.1831 47.457C19.1831 47.7879 19.4522 48.057 19.7838 48.057Z" fill="white"/>
<path d="M21.7431 48.3836C22.0915 48.3836 22.3743 48.1008 22.3743 47.7524C22.3743 47.4033 22.0915 47.1212 21.7431 47.1212C21.3948 47.1212 21.1119 47.4033 21.1119 47.7524C21.1119 48.1008 21.3948 48.3836 21.7431 48.3836Z" fill="white"/>
<path d="M23.7252 48.4018C24.0835 48.4018 24.3747 48.1106 24.3747 47.7523C24.3747 47.3932 24.0835 47.1028 23.7252 47.1028C23.3661 47.1028 23.0757 47.3932 23.0757 47.7523C23.0757 48.1106 23.3661 48.4018 23.7252 48.4018Z" fill="white"/>
<path d="M25.6844 48.1374C26.0602 48.1374 26.3644 47.8324 26.3644 47.4574C26.3644 47.0815 26.0602 46.7766 25.6844 46.7766C25.3086 46.7766 25.0044 47.0815 25.0044 47.4574C25.0044 47.8324 25.3086 48.1374 25.6844 48.1374Z" fill="white"/>
<path d="M27.5779 47.5777C27.9667 47.5777 28.2823 47.2621 28.2823 46.8726C28.2823 46.4838 27.9667 46.1682 27.5779 46.1682C27.1884 46.1682 26.8735 46.4838 26.8735 46.8726C26.8735 47.2621 27.1884 47.5777 27.5779 47.5777Z" fill="white"/>
<path d="M29.3633 46.7421C29.7658 46.7421 30.0921 46.4159 30.0921 46.0134C30.0921 45.6101 29.7658 45.2838 29.3633 45.2838C28.9608 45.2838 28.6338 45.6101 28.6338 46.0134C28.6338 46.4159 28.9608 46.7421 29.3633 46.7421Z" fill="white"/>
<path d="M31.0008 45.6444C31.4132 45.6444 31.7479 45.3097 31.7479 44.8965C31.7479 44.4833 31.4132 44.1487 31.0008 44.1487C30.5876 44.1487 30.2529 44.4833 30.2529 44.8965C30.2529 45.3097 30.5876 45.6444 31.0008 45.6444Z" fill="white"/>
<path d="M32.453 44.315C32.8761 44.315 33.2191 43.9719 33.2191 43.5489C33.2191 43.1258 32.8761 42.7827 32.453 42.7827C32.0299 42.7827 31.6869 43.1258 31.6869 43.5489C31.6869 43.9719 32.0299 44.315 32.453 44.315Z" fill="white"/>
<path d="M33.6888 42.7781C34.118 42.7781 34.4672 42.4297 34.4672 41.9998C34.4672 41.5698 34.118 41.2214 33.6888 41.2214C33.2589 41.2214 32.9105 41.5698 32.9105 41.9998C32.9105 42.4297 33.2589 42.7781 33.6888 42.7781Z" fill="white"/>
<path d="M34.6798 41.0742C35.1159 41.0742 35.4696 40.7197 35.4696 40.2837C35.4696 39.8469 35.1159 39.4932 34.6798 39.4932C34.243 39.4932 33.8885 39.8469 33.8885 40.2837C33.8885 40.7197 34.243 41.0742 34.6798 41.0742Z" fill="white"/>
<path d="M35.4034 39.2416C35.8471 39.2416 36.2062 38.8825 36.2062 38.4388C36.2062 37.9959 35.8471 37.6361 35.4034 37.6361C34.9598 37.6361 34.6007 37.9959 34.6007 38.4388C34.6007 38.8825 34.9598 39.2416 35.4034 39.2416Z" fill="white"/>
<path d="M35.8438 37.31C36.2875 37.31 36.6466 36.9502 36.6466 36.5073C36.6466 36.0636 36.2875 35.7046 35.8438 35.7046C35.4009 35.7046 35.0419 36.0636 35.0419 36.5073C35.0419 36.9502 35.4009 37.31 35.8438 37.31Z" fill="white"/>
<path d="M35.9918 35.3401C36.4393 35.3401 36.8014 34.978 36.8014 34.5312C36.8014 34.0845 36.4393 33.7224 35.9918 33.7224C35.5458 33.7224 35.1837 34.0845 35.1837 34.5312C35.1837 34.978 35.5458 35.3401 35.9918 35.3401Z" fill="white"/>
<path d="M37.6963 31.4346C38.1529 31.4346 38.5234 31.0641 38.5234 30.6075C38.5234 30.1509 38.1529 29.7804 37.6963 29.7804C37.2389 29.7804 36.8691 30.1509 36.8691 30.6075C36.8691 31.0641 37.2389 31.4346 37.6963 31.4346Z" fill="white"/>
<path d="M38.0752 33.3862C38.5349 33.3862 38.9084 33.0134 38.9084 32.5529C38.9084 32.0925 38.5349 31.7197 38.0752 31.7197C37.6147 31.7197 37.2419 32.0925 37.2419 32.5529C37.2419 33.0134 37.6147 33.3862 38.0752 33.3862Z" fill="white"/>
<path d="M37.072 29.5478C37.5248 29.5478 37.8923 29.1796 37.8923 28.7268C37.8923 28.2732 37.5248 27.905 37.072 27.905C36.6177 27.905 36.251 28.2732 36.251 28.7268C36.251 29.1796 36.6177 29.5478 37.072 29.5478Z" fill="white"/>
<path d="M36.2115 27.7498C36.6582 27.7498 37.0204 27.3877 37.0204 26.941C37.0204 26.4943 36.6582 26.1322 36.2115 26.1322C35.7648 26.1322 35.4027 26.4943 35.4027 26.941C35.4027 27.3877 35.7648 27.7498 36.2115 27.7498Z" fill="white"/>
<path d="M35.1302 26.0765C35.5701 26.0765 35.9269 25.7198 35.9269 25.2799C35.9269 24.84 35.5701 24.4833 35.1302 24.4833C34.6904 24.4833 34.3336 24.84 34.3336 25.2799C34.3336 25.7198 34.6904 26.0765 35.1302 26.0765Z" fill="white"/>
<path d="M33.846 24.5547C34.2782 24.5547 34.6296 24.2033 34.6296 23.7703C34.6296 23.3373 34.2782 22.9858 33.846 22.9858C33.4122 22.9858 33.0615 23.3373 33.0615 23.7703C33.0615 24.2033 33.4122 24.5547 33.846 24.5547Z" fill="white"/>
<path d="M32.3783 23.2039C32.8014 23.2039 33.1437 22.8608 33.1437 22.4378C33.1437 22.0147 32.8014 21.6716 32.3783 21.6716C31.9552 21.6716 31.6122 22.0147 31.6122 22.4378C31.6122 22.8608 31.9552 23.2039 32.3783 23.2039Z" fill="white"/>
<path d="M30.7523 22.0455C31.1617 22.0455 31.4941 21.7138 31.4941 21.3045C31.4941 20.8951 31.1617 20.5627 30.7523 20.5627C30.343 20.5627 30.0114 20.8951 30.0114 21.3045C30.0114 21.7138 30.343 22.0455 30.7523 22.0455Z" fill="white"/>
<path d="M28.9951 21.1099C29.3946 21.1099 29.7186 20.7867 29.7186 20.3872C29.7186 19.9878 29.3946 19.6646 28.9951 19.6646C28.5957 19.6646 28.2725 19.9878 28.2725 20.3872C28.2725 20.7867 28.5957 21.1099 28.9951 21.1099Z" fill="white"/>
<path d="M27.1349 20.4008C27.5207 20.4008 27.834 20.0883 27.834 19.7026C27.834 19.3168 27.5207 19.0043 27.1349 19.0043C26.7492 19.0043 26.4366 19.3168 26.4366 19.7026C26.4366 20.0883 26.7492 20.4008 27.1349 20.4008Z" fill="white"/>
<path d="M25.2027 19.9359C25.5755 19.9359 25.8766 19.6341 25.8766 19.2621C25.8766 18.8893 25.5755 18.5874 25.2027 18.5874C24.8307 18.5874 24.5288 18.8893 24.5288 19.2621C24.5288 19.6341 24.8307 19.9359 25.2027 19.9359Z" fill="white"/>
<path d="M23.2305 19.7209C23.5888 19.7209 23.8792 19.4297 23.8792 19.0714C23.8792 18.7123 23.5888 18.4219 23.2305 18.4219C22.8714 18.4219 22.5802 18.7123 22.5802 19.0714C22.5802 19.4297 22.8714 19.7209 23.2305 19.7209Z" fill="white"/>
<path d="M21.2482 19.7597C21.5936 19.7597 21.8733 19.48 21.8733 19.1346C21.8733 18.7893 21.5936 18.5095 21.2482 18.5095C20.9037 18.5095 20.6239 18.7893 20.6239 19.1346C20.6239 19.48 20.9037 19.7597 21.2482 19.7597Z" fill="white"/>
<path d="M19.2922 20.0456C19.6208 20.0456 19.8869 19.7796 19.8869 19.451C19.8869 19.1232 19.6208 18.8572 19.2922 18.8572C18.9637 18.8572 18.6976 19.1232 18.6976 19.451C18.6976 19.7796 18.9637 20.0456 19.2922 20.0456Z" fill="white"/>
<path d="M17.3921 20.5917C17.7107 20.5917 17.9684 20.3333 17.9684 20.0154C17.9684 19.6975 17.7107 19.4391 17.3921 19.4391C17.0742 19.4391 16.8165 19.6975 16.8165 20.0154C16.8165 20.3333 17.0742 20.5917 17.3921 20.5917Z" fill="white"/>
<path d="M15.5799 21.3688C15.884 21.3688 16.131 21.1218 16.131 20.8169C16.131 20.5127 15.884 20.2657 15.5799 20.2657C15.2749 20.2657 15.028 20.5127 15.028 20.8169C15.028 21.1218 15.2749 21.3688 15.5799 21.3688Z" fill="white"/>
<path d="M13.8851 22.3783C14.1793 22.3783 14.4179 22.1389 14.4179 21.8446C14.4179 21.5504 14.1793 21.3118 13.8851 21.3118C13.59 21.3118 13.3514 21.5504 13.3514 21.8446C13.3514 22.1389 13.59 22.3783 13.8851 22.3783Z" fill="white"/>
<path d="M12.3354 23.5956C12.6197 23.5956 12.85 23.3646 12.85 23.0802C12.85 22.7959 12.6197 22.5657 12.3354 22.5657C12.0511 22.5657 11.8201 22.7959 11.8201 23.0802C11.8201 23.3646 12.0511 23.5956 12.3354 23.5956Z" fill="white"/>
<path d="M10.9564 25.0005C11.2308 25.0005 11.4526 24.7786 11.4526 24.5042C11.4526 24.2298 11.2308 24.0079 10.9564 24.0079C10.6819 24.0079 10.4601 24.2298 10.4601 24.5042C10.4601 24.7786 10.6819 25.0005 10.9564 25.0005Z" fill="white"/>
<path d="M9.77107 26.5772C10.0379 26.5772 10.2551 26.3599 10.2551 26.0931C10.2551 25.8255 10.0379 25.609 9.77107 25.609C9.50349 25.609 9.28699 25.8255 9.28699 26.0931C9.28699 26.3599 9.50349 26.5772 9.77107 26.5772Z" fill="white"/>
<path d="M8.79805 28.2856C9.05496 28.2856 9.26383 28.0774 9.26383 27.8198C9.26383 27.5629 9.05496 27.354 8.79805 27.354C8.54115 27.354 8.33228 27.5629 8.33228 27.8198C8.33228 28.0774 8.54115 28.2856 8.79805 28.2856Z" fill="white"/>
<path d="M8.05413 30.1168C8.30799 30.1168 8.51382 29.9109 8.51382 29.6571C8.51382 29.4032 8.30799 29.1974 8.05413 29.1974C7.80028 29.1974 7.59521 29.4032 7.59521 29.6571C7.59521 29.9109 7.80028 30.1168 8.05413 30.1168Z" fill="white"/>
<path d="M7.55185 32.0278C7.80189 32.0278 8.00543 31.825 8.00543 31.5742C8.00543 31.3242 7.80189 31.1206 7.55185 31.1206C7.30105 31.1206 7.09827 31.3242 7.09827 31.5742C7.09827 31.825 7.30105 32.0278 7.55185 32.0278Z" fill="white"/>
<path d="M7.29806 33.994C7.54886 33.994 7.75165 33.7904 7.75165 33.5404C7.75165 33.2896 7.54886 33.0868 7.29806 33.0868C7.04802 33.0868 6.84448 33.2896 6.84448 33.5404C6.84448 33.7904 7.04802 33.994 7.29806 33.994Z" fill="white"/>
<path d="M7.29806 35.976C7.54886 35.976 7.75165 35.7725 7.75165 35.5224C7.75165 35.2716 7.54886 35.0688 7.29806 35.0688C7.04802 35.0688 6.84448 35.2716 6.84448 35.5224C6.84448 35.7725 7.04802 35.976 7.29806 35.976Z" fill="white"/>
<path d="M7.55185 37.9412C7.80189 37.9412 8.00543 37.7384 8.00543 37.4876C8.00543 37.2376 7.80189 37.0348 7.55185 37.0348C7.30105 37.0348 7.09827 37.2376 7.09827 37.4876C7.09827 37.7384 7.30105 37.9412 7.55185 37.9412Z" fill="white"/>
<path d="M8.05413 39.8644C8.30799 39.8644 8.51382 39.6586 8.51382 39.4047C8.51382 39.1516 8.30799 38.9458 8.05413 38.9458C7.80028 38.9458 7.59521 39.1516 7.59521 39.4047C7.59521 39.6586 7.80028 39.8644 8.05413 39.8644Z" fill="white"/>
<path d="M8.79805 41.7078C9.05496 41.7078 9.26383 41.4997 9.26383 41.242C9.26383 40.9851 9.05496 40.777 8.79805 40.777C8.54115 40.777 8.33228 40.9851 8.33228 41.242C8.33228 41.4997 8.54115 41.7078 8.79805 41.7078Z" fill="white"/>
<path d="M9.77107 43.4535C10.0379 43.4535 10.2551 43.237 10.2551 42.9694C10.2551 42.7018 10.0379 42.4854 9.77107 42.4854C9.50349 42.4854 9.28699 42.7018 9.28699 42.9694C9.28699 43.237 9.50349 43.4535 9.77107 43.4535Z" fill="white"/>
<path d="M10.9564 45.0543C11.2308 45.0543 11.4526 44.8317 11.4526 44.5581C11.4526 44.2836 11.2308 44.061 10.9564 44.061C10.6819 44.061 10.4601 44.2836 10.4601 44.5581C10.4601 44.8317 10.6819 45.0543 10.9564 45.0543Z" fill="white"/>
<path d="M12.3354 46.4958C12.6197 46.4958 12.85 46.2656 12.85 45.9812C12.85 45.6977 12.6197 45.4667 12.3354 45.4667C12.0511 45.4667 11.8201 45.6977 11.8201 45.9812C11.8201 46.2656 12.0511 46.4958 12.3354 46.4958Z" fill="white"/>
<path d="M13.8851 47.7508C14.1793 47.7508 14.4179 47.5122 14.4179 47.2172C14.4179 46.9229 14.1793 46.6843 13.8851 46.6843C13.59 46.6843 13.3514 46.9229 13.3514 47.2172C13.3514 47.5122 13.59 47.7508 13.8851 47.7508Z" fill="white"/>
<path d="M15.5799 48.7967C15.884 48.7967 16.131 48.5497 16.131 48.2448C16.131 47.9406 15.884 47.6936 15.5799 47.6936C15.2749 47.6936 15.028 47.9406 15.028 48.2448C15.028 48.5497 15.2749 48.7967 15.5799 48.7967Z" fill="white"/>
<path d="M17.3921 49.6228C17.7107 49.6228 17.9684 49.3652 17.9684 49.0473C17.9684 48.7286 17.7107 48.4709 17.3921 48.4709C17.0742 48.4709 16.8165 48.7286 16.8165 49.0473C16.8165 49.3652 17.0742 49.6228 17.3921 49.6228Z" fill="white"/>
<path d="M19.2922 50.2053C19.6208 50.2053 19.8869 49.9393 19.8869 49.6115C19.8869 49.2829 19.6208 49.0168 19.2922 49.0168C18.9637 49.0168 18.6976 49.2829 18.6976 49.6115C18.6976 49.9393 18.9637 50.2053 19.2922 50.2053Z" fill="white"/>
<path d="M21.2482 50.5522C21.5936 50.5522 21.8733 50.2724 21.8733 49.9271C21.8733 49.5825 21.5936 49.302 21.2482 49.302C20.9037 49.302 20.6239 49.5825 20.6239 49.9271C20.6239 50.2724 20.9037 50.5522 21.2482 50.5522Z" fill="white"/>
<path d="M23.2305 50.6406C23.5888 50.6406 23.8792 50.3493 23.8792 49.9911C23.8792 49.632 23.5888 49.3416 23.2305 49.3416C22.8714 49.3416 22.5802 49.632 22.5802 49.9911C22.5802 50.3493 22.8714 50.6406 23.2305 50.6406Z" fill="white"/>
<path d="M25.2027 50.4745C25.5755 50.4745 25.8766 50.1726 25.8766 49.8006C25.8766 49.4286 25.5755 49.1267 25.2027 49.1267C24.8307 49.1267 24.5288 49.4286 24.5288 49.8006C24.5288 50.1726 24.8307 50.4745 25.2027 50.4745Z" fill="white"/>
<path d="M27.1349 50.0585C27.5207 50.0585 27.834 49.7459 27.834 49.3594C27.834 48.9737 27.5207 48.6611 27.1349 48.6611C26.7492 48.6611 26.4366 48.9737 26.4366 49.3594C26.4366 49.7459 26.7492 50.0585 27.1349 50.0585Z" fill="white"/>
<path d="M28.9951 49.3979C29.3946 49.3979 29.7186 49.0739 29.7186 48.6752C29.7186 48.2758 29.3946 47.9518 28.9951 47.9518C28.5957 47.9518 28.2725 48.2758 28.2725 48.6752C28.2725 49.0739 28.5957 49.3979 28.9951 49.3979Z" fill="white"/>
<path d="M30.7523 48.5C31.1617 48.5 31.4941 48.1676 31.4941 47.7582C31.4941 47.3489 31.1617 47.0165 30.7523 47.0165C30.343 47.0165 30.0114 47.3489 30.0114 47.7582C30.0114 48.1676 30.343 48.5 30.7523 48.5Z" fill="white"/>
<path d="M32.3783 47.3901C32.8014 47.3901 33.1437 47.0479 33.1437 46.6248C33.1437 46.2017 32.8014 45.8586 32.3783 45.8586C31.9552 45.8586 31.6122 46.2017 31.6122 46.6248C31.6122 47.0479 31.9552 47.3901 32.3783 47.3901Z" fill="white"/>
<path d="M33.846 46.0759C34.2782 46.0759 34.6296 45.7252 34.6296 45.2915C34.6296 44.8585 34.2782 44.5078 33.846 44.5078C33.4122 44.5078 33.0615 44.8585 33.0615 45.2915C33.0615 45.7252 33.4122 46.0759 33.846 46.0759Z" fill="white"/>
<path d="M35.1302 44.5786C35.5701 44.5786 35.9269 44.2226 35.9269 43.7827C35.9269 43.3428 35.5701 42.9861 35.1302 42.9861C34.6904 42.9861 34.3336 43.3428 34.3336 43.7827C34.3336 44.2226 34.6904 44.5786 35.1302 44.5786Z" fill="white"/>
<path d="M36.2115 42.9305C36.6582 42.9305 37.0204 42.5676 37.0204 42.1217C37.0204 41.675 36.6582 41.3129 36.2115 41.3129C35.7648 41.3129 35.4027 41.675 35.4027 42.1217C35.4027 42.5676 35.7648 42.9305 36.2115 42.9305Z" fill="white"/>
<path d="M37.072 41.1567C37.5248 41.1567 37.8923 40.7893 37.8923 40.3357C37.8923 39.8821 37.5248 39.5146 37.072 39.5146C36.6177 39.5146 36.251 39.8821 36.251 40.3357C36.251 40.7893 36.6177 41.1567 37.072 41.1567Z" fill="white"/>
<path d="M37.6963 39.2821C38.1529 39.2821 38.5234 38.9116 38.5234 38.455C38.5234 37.9976 38.1529 37.6271 37.6963 37.6271C37.2389 37.6271 36.8691 37.9976 36.8691 38.455C36.8691 38.9116 37.2389 39.2821 37.6963 39.2821Z" fill="white"/>
<path d="M38.0752 37.3426C38.5349 37.3426 38.9084 36.9691 38.9084 36.5086C38.9084 36.049 38.5349 35.6754 38.0752 35.6754C37.6147 35.6754 37.2419 36.049 37.2419 36.5086C37.2419 36.9691 37.6147 37.3426 38.0752 37.3426Z" fill="white"/>
<path d="M38.2019 35.3708C38.6654 35.3708 39.0412 34.9949 39.0412 34.5315C39.0412 34.068 38.6654 33.6921 38.2019 33.6921C37.7384 33.6921 37.3625 34.068 37.3625 34.5315C37.3625 34.9949 37.7384 35.3708 38.2019 35.3708Z" fill="white"/>
<path d="M39.968 31.4552C40.4421 31.4552 40.8263 31.071 40.8263 30.5976C40.8263 30.1235 40.4421 29.7393 39.968 29.7393C39.4946 29.7393 39.1104 30.1235 39.1104 30.5976C39.1104 31.071 39.4946 31.4552 39.968 31.4552Z" fill="white"/>
<path d="M40.3004 33.416C40.7776 33.416 41.1641 33.0288 41.1641 32.5516C41.1641 32.0751 40.7776 31.6879 40.3004 31.6879C39.8231 31.6879 39.4366 32.0751 39.4366 32.5516C39.4366 33.0288 39.8231 33.416 40.3004 33.416Z" fill="white"/>
<path d="M39.4191 29.5441C39.8895 29.5441 40.2714 29.1629 40.2714 28.6926C40.2714 28.2222 39.8895 27.8411 39.4191 27.8411C38.9495 27.8411 38.5676 28.2222 38.5676 28.6926C38.5676 29.1629 38.9495 29.5441 39.4191 29.5441Z" fill="white"/>
<path d="M38.6614 27.701C39.1241 27.701 39.5007 27.3252 39.5007 26.8609C39.5007 26.3974 39.1241 26.0216 38.6614 26.0216C38.1971 26.0216 37.8213 26.3974 37.8213 26.8609C37.8213 27.3252 38.1971 27.701 38.6614 27.701Z" fill="white"/>
<path d="M37.7024 25.9535C38.159 25.9535 38.5287 25.583 38.5287 25.1263C38.5287 24.6689 38.159 24.2985 37.7024 24.2985C37.245 24.2985 36.8745 24.6689 36.8745 25.1263C36.8745 25.583 37.245 25.9535 37.7024 25.9535Z" fill="white"/>
<path d="M36.5552 24.3245C37.0049 24.3245 37.3701 23.9594 37.3701 23.5096C37.3701 23.0591 37.0049 22.6947 36.5552 22.6947C36.1054 22.6947 35.7402 23.0591 35.7402 23.5096C35.7402 23.9594 36.1054 24.3245 36.5552 24.3245Z" fill="white"/>
<path d="M35.2341 22.8281C35.674 22.8281 36.0307 22.4713 36.0307 22.0315C36.0307 21.5916 35.674 21.2349 35.2341 21.2349C34.7943 21.2349 34.4375 21.5916 34.4375 22.0315C34.4375 22.4713 34.7943 22.8281 35.2341 22.8281Z" fill="white"/>
<path d="M33.756 21.4948C34.189 21.4948 34.5404 21.1433 34.5404 20.7103C34.5404 20.2773 34.189 19.9259 33.756 19.9259C33.323 19.9259 32.9716 20.2773 32.9716 20.7103C32.9716 21.1433 33.323 21.4948 33.756 21.4948Z" fill="white"/>
<path d="M32.1391 20.323C32.5591 20.323 32.8991 19.9831 32.8991 19.563C32.8991 19.1437 32.5591 18.803 32.1391 18.803C31.7198 18.803 31.379 19.1437 31.379 19.563C31.379 19.9831 31.7198 20.323 32.1391 20.323Z" fill="white"/>
<path d="M30.4041 19.346C30.8134 19.346 31.1458 19.0136 31.1458 18.6043C31.1458 18.1949 30.8134 17.8633 30.4041 17.8633C29.9947 17.8633 29.6631 18.1949 29.6631 18.6043C29.6631 19.0136 29.9947 19.346 30.4041 19.346Z" fill="white"/>
<path d="M28.5728 18.5628C28.9685 18.5628 29.2894 18.2419 29.2894 17.8455C29.2894 17.4498 28.9685 17.1289 28.5728 17.1289C28.1764 17.1289 27.8555 17.4498 27.8555 17.8455C27.8555 18.2419 28.1764 18.5628 28.5728 18.5628Z" fill="white"/>
<path d="M26.6679 17.9889C27.0506 17.9889 27.3601 17.6794 27.3601 17.2967C27.3601 16.9148 27.0506 16.6045 26.6679 16.6045C26.2852 16.6045 25.9757 16.9148 25.9757 17.2967C25.9757 17.6794 26.2852 17.9889 26.6679 17.9889Z" fill="white"/>
<path d="M24.7132 17.6329C25.0822 17.6329 25.381 17.3341 25.381 16.9652C25.381 16.5962 25.0822 16.2974 24.7132 16.2974C24.3442 16.2974 24.0454 16.5962 24.0454 16.9652C24.0454 17.3341 24.3442 17.6329 24.7132 17.6329Z" fill="white"/>
<path d="M22.7342 17.497C23.0895 17.497 23.3776 17.2088 23.3776 16.8536C23.3776 16.4984 23.0895 16.2102 22.7342 16.2102C22.379 16.2102 22.0908 16.4984 22.0908 16.8536C22.0908 17.2088 22.379 17.497 22.7342 17.497Z" fill="white"/>
<path d="M20.7554 17.5772C21.0938 17.5772 21.3675 17.3036 21.3675 16.9651C21.3675 16.6266 21.0938 16.3522 20.7554 16.3522C20.4161 16.3522 20.1425 16.6266 20.1425 16.9651C20.1425 17.3036 20.4161 17.5772 20.7554 17.5772Z" fill="white"/>
<path d="M18.8007 17.8913C19.1292 17.8913 19.3953 17.6253 19.3953 17.2967C19.3953 16.9689 19.1292 16.7029 18.8007 16.7029C18.4721 16.7029 18.2061 16.9689 18.2061 17.2967C18.2061 17.6253 18.4721 17.8913 18.8007 17.8913Z" fill="white"/>
<path d="M16.8956 18.4158C17.2105 18.4158 17.4658 18.1604 17.4658 17.8456C17.4658 17.5307 17.2105 17.2761 16.8956 17.2761C16.5808 17.2761 16.3262 17.5307 16.3262 17.8456C16.3262 18.1604 16.5808 18.4158 16.8956 18.4158Z" fill="white"/>
<path d="M15.0637 19.15C15.3656 19.15 15.6096 18.9053 15.6096 18.6041C15.6096 18.303 15.3656 18.0591 15.0637 18.0591C14.7634 18.0591 14.5187 18.303 14.5187 18.6041C14.5187 18.9053 14.7634 19.15 15.0637 19.15Z" fill="white"/>
<path d="M13.3295 20.0899C13.6199 20.0899 13.8563 19.8544 13.8563 19.5631C13.8563 19.2719 13.6199 19.0364 13.3295 19.0364C13.0383 19.0364 12.8027 19.2719 12.8027 19.5631C12.8027 19.8544 13.0383 20.0899 13.3295 20.0899Z" fill="white"/>
<path d="M11.7127 21.2187C11.9932 21.2187 12.2212 20.9908 12.2212 20.7103C12.2212 20.429 11.9932 20.2018 11.7127 20.2018C11.4314 20.2018 11.2042 20.429 11.2042 20.7103C11.2042 20.9908 11.4314 21.2187 11.7127 21.2187Z" fill="white"/>
<path d="M10.2343 22.5215C10.5049 22.5215 10.7245 22.3019 10.7245 22.0313C10.7245 21.7607 10.5049 21.5411 10.2343 21.5411C9.96369 21.5411 9.74414 21.7607 9.74414 22.0313C9.74414 22.3019 9.96369 22.5215 10.2343 22.5215Z" fill="white"/>
<path d="M8.91341 23.9815C9.17412 23.9815 9.38528 23.7703 9.38528 23.5096C9.38528 23.2489 9.17412 23.0377 8.91341 23.0377C8.6527 23.0377 8.44153 23.2489 8.44153 23.5096C8.44153 23.7703 8.6527 23.9815 8.91341 23.9815Z" fill="white"/>
<path d="M7.76605 25.5856C8.0199 25.5856 8.22573 25.3798 8.22573 25.1267C8.22573 24.8728 8.0199 24.667 7.76605 24.667C7.51219 24.667 7.30713 24.8728 7.30713 25.1267C7.30713 25.3798 7.51219 25.5856 7.76605 25.5856Z" fill="white"/>
<path d="M6.80719 27.3083C7.05419 27.3083 7.25468 27.1085 7.25468 26.8608C7.25468 26.6138 7.05419 26.4141 6.80719 26.4141C6.5602 26.4141 6.36047 26.6138 6.36047 26.8608C6.36047 27.1085 6.5602 27.3083 6.80719 27.3083Z" fill="white"/>
<path d="M6.0484 29.1339C6.29235 29.1339 6.48979 28.9364 6.48979 28.6925C6.48979 28.4485 6.29235 28.2511 6.0484 28.2511C5.80522 28.2511 5.60779 28.4485 5.60779 28.6925C5.60779 28.9364 5.80522 29.1339 6.0484 29.1339Z" fill="white"/>
<path d="M5.49971 31.0322C5.7406 31.0322 5.93499 30.8378 5.93499 30.5976C5.93499 30.3575 5.7406 30.1624 5.49971 30.1624C5.25957 30.1624 5.06519 30.3575 5.06519 30.5976C5.06519 30.8378 5.25957 31.0322 5.49971 31.0322Z" fill="white"/>
<path d="M5.16796 32.9805C5.40504 32.9805 5.59638 32.7884 5.59638 32.5513C5.59638 32.315 5.40504 32.1229 5.16796 32.1229C4.93087 32.1229 4.73877 32.315 4.73877 32.5513C4.73877 32.7884 4.93087 32.9805 5.16796 32.9805Z" fill="white"/>
<path d="M5.05675 34.9595C5.29383 34.9595 5.48594 34.7682 5.48594 34.5311C5.48594 34.294 5.29383 34.1019 5.05675 34.1019C4.81967 34.1019 4.62756 34.294 4.62756 34.5311C4.62756 34.7682 4.81967 34.9595 5.05675 34.9595Z" fill="white"/>
<path d="M5.16796 36.9395C5.40504 36.9395 5.59638 36.7474 5.59638 36.5103C5.59638 36.2733 5.40504 36.0819 5.16796 36.0819C4.93087 36.0819 4.73877 36.2733 4.73877 36.5103C4.73877 36.7474 4.93087 36.9395 5.16796 36.9395Z" fill="white"/>
<path d="M5.49971 38.9001C5.7406 38.9001 5.93499 38.705 5.93499 38.4648C5.93499 38.2247 5.7406 38.0295 5.49971 38.0295C5.25957 38.0295 5.06519 38.2247 5.06519 38.4648C5.06519 38.705 5.25957 38.9001 5.49971 38.9001Z" fill="white"/>
<path d="M6.0484 40.8105C6.29235 40.8105 6.48979 40.613 6.48979 40.3699C6.48979 40.1259 6.29235 39.9285 6.0484 39.9285C5.80522 39.9285 5.60779 40.1259 5.60779 40.3699C5.60779 40.613 5.80522 40.8105 6.0484 40.8105Z" fill="white"/>
<path d="M6.80719 42.6485C7.05419 42.6485 7.25468 42.448 7.25468 42.201C7.25468 41.954 7.05419 41.7543 6.80719 41.7543C6.5602 41.7543 6.36047 41.954 6.36047 42.201C6.36047 42.448 6.5602 42.6485 6.80719 42.6485Z" fill="white"/>
<path d="M7.76605 44.3958C8.0199 44.3958 8.22573 44.19 8.22573 43.9361C8.22573 43.6823 8.0199 43.4764 7.76605 43.4764C7.51219 43.4764 7.30713 43.6823 7.30713 43.9361C7.30713 44.19 7.51219 44.3958 7.76605 44.3958Z" fill="white"/>
<path d="M8.91341 46.0248C9.17412 46.0248 9.38528 45.8129 9.38528 45.5529C9.38528 45.2922 9.17412 45.0811 8.91341 45.0811C8.6527 45.0811 8.44153 45.2922 8.44153 45.5529C8.44153 45.8129 8.6527 46.0248 8.91341 46.0248Z" fill="white"/>
<path d="M10.2343 47.5212C10.5049 47.5212 10.7245 47.3017 10.7245 47.0311C10.7245 46.7604 10.5049 46.5409 10.2343 46.5409C9.96369 46.5409 9.74414 46.7604 9.74414 47.0311C9.74414 47.3017 9.96369 47.5212 10.2343 47.5212Z" fill="white"/>
<path d="M11.7127 48.8604C11.9932 48.8604 12.2212 48.6324 12.2212 48.3511C12.2212 48.0706 11.9932 47.8427 11.7127 47.8427C11.4314 47.8427 11.2042 48.0706 11.2042 48.3511C11.2042 48.6324 11.4314 48.8604 11.7127 48.8604Z" fill="white"/>
<path d="M13.3295 50.0254C13.6199 50.0254 13.8563 49.7899 13.8563 49.4987C13.8563 49.2082 13.6199 48.9719 13.3295 48.9719C13.0383 48.9719 12.8027 49.2082 12.8027 49.4987C12.8027 49.7899 13.0383 50.0254 13.3295 50.0254Z" fill="white"/>
<path d="M15.0637 51.0028C15.3656 51.0028 15.6096 50.7589 15.6096 50.4578C15.6096 50.1567 15.3656 49.9127 15.0637 49.9127C14.7634 49.9127 14.5187 50.1567 14.5187 50.4578C14.5187 50.7589 14.7634 51.0028 15.0637 51.0028Z" fill="white"/>
<path d="M16.8956 51.7864C17.2105 51.7864 17.4658 51.531 17.4658 51.2162C17.4658 50.9021 17.2105 50.6467 16.8956 50.6467C16.5808 50.6467 16.3262 50.9021 16.3262 51.2162C16.3262 51.531 16.5808 51.7864 16.8956 51.7864Z" fill="white"/>
<path d="M18.8007 52.3598C19.1292 52.3598 19.3953 52.0938 19.3953 51.7652C19.3953 51.4374 19.1292 51.1714 18.8007 51.1714C18.4721 51.1714 18.2061 51.4374 18.2061 51.7652C18.2061 52.0938 18.4721 52.3598 18.8007 52.3598Z" fill="white"/>
<path d="M20.7554 52.7102C21.0938 52.7102 21.3675 52.4358 21.3675 52.0973C21.3675 51.7588 21.0938 51.4844 20.7554 51.4844C20.4161 51.4844 20.1425 51.7588 20.1425 52.0973C20.1425 52.4358 20.4161 52.7102 20.7554 52.7102Z" fill="white"/>
<path d="M22.7342 52.8522C23.0895 52.8522 23.3776 52.5641 23.3776 52.2088C23.3776 51.8536 23.0895 51.5654 22.7342 51.5654C22.379 51.5654 22.0908 51.8536 22.0908 52.2088C22.0908 52.5641 22.379 52.8522 22.7342 52.8522Z" fill="white"/>
<path d="M24.7132 52.7652C25.0822 52.7652 25.381 52.4663 25.381 52.0974C25.381 51.7284 25.0822 51.4296 24.7132 51.4296C24.3442 51.4296 24.0454 51.7284 24.0454 52.0974C24.0454 52.4663 24.3442 52.7652 24.7132 52.7652Z" fill="white"/>
<path d="M26.6679 52.4574C27.0506 52.4574 27.3601 52.1479 27.3601 51.7652C27.3601 51.3833 27.0506 51.073 26.6679 51.073C26.2852 51.073 25.9757 51.3833 25.9757 51.7652C25.9757 52.1479 26.2852 52.4574 26.6679 52.4574Z" fill="white"/>
<path d="M28.5728 51.9338C28.9685 51.9338 29.2894 51.6129 29.2894 51.2165C29.2894 50.8208 28.9685 50.4999 28.5728 50.4999C28.1764 50.4999 27.8555 50.8208 27.8555 51.2165C27.8555 51.6129 28.1764 51.9338 28.5728 51.9338Z" fill="white"/>
<path d="M30.4041 51.1994C30.8134 51.1994 31.1458 50.8678 31.1458 50.4576C31.1458 50.0483 30.8134 49.7167 30.4041 49.7167C29.9947 49.7167 29.6631 50.0483 29.6631 50.4576C29.6631 50.8678 29.9947 51.1994 30.4041 51.1994Z" fill="white"/>
<path d="M32.1391 50.2586C32.5591 50.2586 32.8991 49.9186 32.8991 49.4985C32.8991 49.0793 32.5591 48.7393 32.1391 48.7393C31.7198 48.7393 31.379 49.0793 31.379 49.4985C31.379 49.9186 31.7198 50.2586 32.1391 50.2586Z" fill="white"/>
<path d="M33.756 49.1358C34.189 49.1358 34.5404 48.7852 34.5404 48.3514C34.5404 47.9192 34.189 47.5677 33.756 47.5677C33.323 47.5677 32.9716 47.9192 32.9716 48.3514C32.9716 48.7852 33.323 49.1358 33.756 49.1358Z" fill="white"/>
<path d="M35.2341 47.8278C35.674 47.8278 36.0307 47.471 36.0307 47.0311C36.0307 46.5913 35.674 46.2345 35.2341 46.2345C34.7943 46.2345 34.4375 46.5913 34.4375 47.0311C34.4375 47.471 34.7943 47.8278 35.2341 47.8278Z" fill="white"/>
<path d="M36.5552 46.3678C37.0049 46.3678 37.3701 46.0026 37.3701 45.5528C37.3701 45.1031 37.0049 44.7379 36.5552 44.7379C36.1054 44.7379 35.7402 45.1031 35.7402 45.5528C35.7402 46.0026 36.1054 46.3678 36.5552 46.3678Z" fill="white"/>
<path d="M37.7024 44.7631C38.159 44.7631 38.5287 44.3926 38.5287 43.936C38.5287 43.4794 38.159 43.1089 37.7024 43.1089C37.245 43.1089 36.8745 43.4794 36.8745 43.936C36.8745 44.3926 37.245 44.7631 37.7024 44.7631Z" fill="white"/>
<path d="M38.6614 43.0404C39.1241 43.0404 39.5007 42.6646 39.5007 42.2011C39.5007 41.7376 39.1241 41.3618 38.6614 41.3618C38.1971 41.3618 37.8213 41.7376 37.8213 42.2011C37.8213 42.6646 38.1971 43.0404 38.6614 43.0404Z" fill="white"/>
<path d="M39.4191 41.2212C39.8895 41.2212 40.2714 40.8401 40.2714 40.3697C40.2714 39.8994 39.8895 39.5175 39.4191 39.5175C38.9495 39.5175 38.5676 39.8994 38.5676 40.3697C38.5676 40.8401 38.9495 41.2212 39.4191 41.2212Z" fill="white"/>
<path d="M39.968 39.3225C40.4421 39.3225 40.8263 38.9383 40.8263 38.4649C40.8263 37.9907 40.4421 37.6073 39.968 37.6073C39.4946 37.6073 39.1104 37.9907 39.1104 38.4649C39.1104 38.9383 39.4946 39.3225 39.968 39.3225Z" fill="white"/>
<path d="M40.3004 37.374C40.7776 37.374 41.1641 36.9875 41.1641 36.5103C41.1641 36.0331 40.7776 35.6466 40.3004 35.6466C39.8231 35.6466 39.4366 36.0331 39.4366 36.5103C39.4366 36.9875 39.8231 37.374 40.3004 37.374Z" fill="white"/>
<path d="M40.4117 35.4009C40.8919 35.4009 41.2815 35.0114 41.2815 34.5311C41.2815 34.0501 40.8919 33.6605 40.4117 33.6605C39.9306 33.6605 39.5419 34.0501 39.5419 34.5311C39.5419 35.0114 39.9306 35.4009 40.4117 35.4009Z" fill="white"/>
<path d="M40.1999 25.8842C40.6764 25.8842 41.0636 25.4969 41.0636 25.0197C41.0636 24.5425 40.6764 24.156 40.1999 24.156C39.7227 24.156 39.3354 24.5425 39.3354 25.0197C39.3354 25.4969 39.7227 25.8842 40.1999 25.8842Z" fill="white"/>
<path d="M41.0597 27.6826C41.5438 27.6826 41.9364 27.29 41.9364 26.806C41.9364 26.3226 41.5438 25.9301 41.0597 25.9301C40.5757 25.9301 40.1838 26.3226 40.1838 26.806C40.1838 27.29 40.5757 27.6826 41.0597 27.6826Z" fill="white"/>
<path d="M41.7374 29.5518C42.2252 29.5518 42.6201 29.1569 42.6201 28.669C42.6201 28.1819 42.2252 27.787 41.7374 27.787C41.2502 27.787 40.8553 28.1819 40.8553 28.669C40.8553 29.1569 41.2502 29.5518 41.7374 29.5518Z" fill="white"/>
<path d="M42.2267 31.479C42.7177 31.479 43.1156 31.0811 43.1156 30.5909C43.1156 30.1 42.7177 29.702 42.2267 29.702C41.7358 29.702 41.3386 30.1 41.3386 30.5909C41.3386 31.0811 41.7358 31.479 42.2267 31.479Z" fill="white"/>
<path d="M42.5227 33.4457C43.0166 33.4457 43.4169 33.0447 43.4169 32.5507C43.4169 32.0567 43.0166 31.6565 42.5227 31.6565C42.0287 31.6565 41.6277 32.0567 41.6277 32.5507C41.6277 33.0447 42.0287 33.4457 42.5227 33.4457Z" fill="white"/>
<path d="M39.1655 24.1797C39.6366 24.1797 40.0178 23.7986 40.0178 23.3282C40.0178 22.8578 39.6366 22.4767 39.1655 22.4767C38.6951 22.4767 38.314 22.8578 38.314 23.3282C38.314 23.7986 38.6951 24.1797 39.1655 24.1797Z" fill="white"/>
<path d="M37.9685 22.5811C38.4289 22.5811 38.8017 22.2083 38.8017 21.7479C38.8017 21.2875 38.4289 20.9147 37.9685 20.9147C37.508 20.9147 37.1353 21.2875 37.1353 21.7479C37.1353 22.2083 37.508 22.5811 37.9685 22.5811Z" fill="white"/>
<path d="M36.6198 21.1097C37.0704 21.1097 37.4348 20.7445 37.4348 20.2948C37.4348 19.8442 37.0704 19.4799 36.6198 19.4799C36.1701 19.4799 35.8049 19.8442 35.8049 20.2948C35.8049 20.7445 36.1701 21.1097 36.6198 21.1097Z" fill="white"/>
<path d="M35.1333 19.7796C35.5732 19.7796 35.9299 19.4229 35.9299 18.983C35.9299 18.5432 35.5732 18.1864 35.1333 18.1864C34.6934 18.1864 34.3367 18.5432 34.3367 18.983C34.3367 19.4229 34.6934 19.7796 35.1333 19.7796Z" fill="white"/>
<path d="M33.5233 18.6034C33.9533 18.6034 34.3016 18.255 34.3016 17.8258C34.3016 17.3959 33.9533 17.0475 33.5233 17.0475C33.0941 17.0475 32.7457 17.3959 32.7457 17.8258C32.7457 18.255 33.0941 18.6034 33.5233 18.6034Z" fill="white"/>
<path d="M31.8074 17.5879C32.2229 17.5879 32.5606 17.2502 32.5606 16.834C32.5606 16.4178 32.2229 16.0808 31.8074 16.0808C31.3904 16.0808 31.0535 16.4178 31.0535 16.834C31.0535 17.2502 31.3904 17.5879 31.8074 17.5879Z" fill="white"/>
<path d="M29.9998 16.7538C30.4053 16.7538 30.7354 16.4245 30.7354 16.019C30.7354 15.6126 30.4053 15.2833 29.9998 15.2833C29.5935 15.2833 29.2642 15.6126 29.2642 16.019C29.2642 16.4245 29.5935 16.7538 29.9998 16.7538Z" fill="white"/>
<path d="M28.1208 16.0983C28.5134 16.0983 28.8313 15.7798 28.8313 15.3873C28.8313 14.9947 28.5134 14.6765 28.1208 14.6765C27.7282 14.6765 27.4095 14.9947 27.4095 15.3873C27.4095 15.7798 27.7282 16.0983 28.1208 16.0983Z" fill="white"/>
<path d="M26.1874 15.6323C26.5663 15.6323 26.8735 15.325 26.8735 14.9461C26.8735 14.5671 26.5663 14.2598 26.1874 14.2598C25.8086 14.2598 25.5013 14.5671 25.5013 14.9461C25.5013 15.325 25.8086 15.6323 26.1874 15.6323Z" fill="white"/>
<path d="M24.22 15.3613C24.586 15.3613 24.8825 15.0651 24.8825 14.6995C24.8825 14.3341 24.586 14.0378 24.22 14.0378C23.8549 14.0378 23.5583 14.3341 23.5583 14.6995C23.5583 15.0651 23.8549 15.3613 24.22 15.3613Z" fill="white"/>
<path d="M22.2379 15.2875C22.59 15.2875 22.8759 15.0021 22.8759 14.6502C22.8759 14.2983 22.59 14.0129 22.2379 14.0129C21.8864 14.0129 21.6013 14.2983 21.6013 14.6502C21.6013 15.0021 21.8864 15.2875 22.2379 15.2875Z" fill="white"/>
<path d="M20.2612 15.4046C20.5967 15.4046 20.868 15.133 20.868 14.7981C20.868 14.463 20.5967 14.1914 20.2612 14.1914C19.9266 14.1914 19.6544 14.463 19.6544 14.7981C19.6544 15.133 19.9266 15.4046 20.2612 15.4046Z" fill="white"/>
<path d="M18.309 15.731C18.6337 15.731 18.8967 15.4676 18.8967 15.1428C18.8967 14.8179 18.6337 14.5546 18.309 14.5546C17.9842 14.5546 17.7205 14.8179 17.7205 15.1428C17.7205 15.4676 17.9842 15.731 18.309 15.731Z" fill="white"/>
<path d="M16.4001 16.2432C16.7119 16.2432 16.9643 15.9908 16.9643 15.6796C16.9643 15.3682 16.7119 15.1158 16.4001 15.1158C16.0891 15.1158 15.8368 15.3682 15.8368 15.6796C15.8368 15.9908 16.0891 16.2432 16.4001 16.2432Z" fill="white"/>
<path d="M14.5555 16.9431C14.8528 16.9431 15.0944 16.7014 15.0944 16.4041C15.0944 16.106 14.8528 15.8644 14.5555 15.8644C14.2574 15.8644 14.0157 16.106 14.0157 16.4041C14.0157 16.7014 14.2574 16.9431 14.5555 16.9431Z" fill="white"/>
<path d="M12.7904 17.8288C13.0786 17.8288 13.3119 17.5963 13.3119 17.3081C13.3119 17.0207 13.0786 16.7875 12.7904 16.7875C12.5031 16.7875 12.2698 17.0207 12.2698 17.3081C12.2698 17.5963 12.5031 17.8288 12.7904 17.8288Z" fill="white"/>
<path d="M11.1256 18.8861C11.4031 18.8861 11.6272 18.6612 11.6272 18.3837C11.6272 18.1062 11.4031 17.8813 11.1256 17.8813C10.8481 17.8813 10.6224 18.1062 10.6224 18.3837C10.6224 18.6612 10.8481 18.8861 11.1256 18.8861Z" fill="white"/>
<path d="M9.57502 20.098C9.83879 20.098 10.053 19.8838 10.053 19.6201C10.053 19.3563 9.83879 19.1421 9.57502 19.1421C9.31126 19.1421 9.09705 19.3563 9.09705 19.6201C9.09705 19.8838 9.31126 20.098 9.57502 20.098Z" fill="white"/>
<path d="M8.15557 21.4643C8.41019 21.4643 8.61526 21.2585 8.61526 21.0046C8.61526 20.7508 8.41019 20.5449 8.15557 20.5449C7.90248 20.5449 7.69666 20.7508 7.69666 21.0046C7.69666 21.2585 7.90248 21.4643 8.15557 21.4643Z" fill="white"/>
<path d="M6.88181 22.9708C7.1288 22.9708 7.32853 22.7703 7.32853 22.5233C7.32853 22.2763 7.1288 22.0758 6.88181 22.0758C6.63482 22.0758 6.43433 22.2763 6.43433 22.5233C6.43433 22.7703 6.63482 22.9708 6.88181 22.9708Z" fill="white"/>
<path d="M5.76499 24.5959C6.00513 24.5959 6.19951 24.4015 6.19951 24.1614C6.19951 23.9212 6.00513 23.7261 5.76499 23.7261C5.5241 23.7261 5.32971 23.9212 5.32971 24.1614C5.32971 24.4015 5.5241 24.5959 5.76499 24.5959Z" fill="white"/>
<path d="M4.81676 26.3311C5.05384 26.3311 5.24519 26.1398 5.24519 25.9027C5.24519 25.6656 5.05384 25.4735 4.81676 25.4735C4.57968 25.4735 4.38757 25.6656 4.38757 25.9027C4.38757 26.1398 4.57968 26.3311 4.81676 26.3311Z" fill="white"/>
<path d="M4.04663 28.146C4.27609 28.146 4.46286 27.9592 4.46286 27.729C4.46286 27.4987 4.27609 27.3127 4.04663 27.3127C3.81641 27.3127 3.62964 27.4987 3.62964 27.729C3.62964 27.9592 3.81641 28.146 4.04663 28.146Z" fill="white"/>
<path d="M3.46201 30.0343C3.68842 30.0343 3.8729 29.8506 3.8729 29.6241C3.8729 29.397 3.68842 29.2133 3.46201 29.2133C3.2356 29.2133 3.05188 29.397 3.05188 29.6241C3.05188 29.8506 3.2356 30.0343 3.46201 30.0343Z" fill="white"/>
<path d="M3.06947 31.9714C3.29283 31.9714 3.4735 31.7907 3.4735 31.5674C3.4735 31.344 3.29283 31.1626 3.06947 31.1626C2.84611 31.1626 2.66467 31.344 2.66467 31.5674C2.66467 31.7907 2.84611 31.9714 3.06947 31.9714Z" fill="white"/>
<path d="M2.87196 33.9443C3.09532 33.9443 3.27599 33.7629 3.27599 33.5395C3.27599 33.3162 3.09532 33.1355 2.87196 33.1355C2.6486 33.1355 2.46716 33.3162 2.46716 33.5395C2.46716 33.7629 2.6486 33.9443 2.87196 33.9443Z" fill="white"/>
<path d="M2.87196 35.9271C3.09532 35.9271 3.27599 35.7457 3.27599 35.5223C3.27599 35.299 3.09532 35.1183 2.87196 35.1183C2.6486 35.1183 2.46716 35.299 2.46716 35.5223C2.46716 35.7457 2.6486 35.9271 2.87196 35.9271Z" fill="white"/>
<path d="M3.06947 37.8992C3.29283 37.8992 3.4735 37.7185 3.4735 37.4951C3.4735 37.2718 3.29283 37.0903 3.06947 37.0903C2.84611 37.0903 2.66467 37.2718 2.66467 37.4951C2.66467 37.7185 2.84611 37.8992 3.06947 37.8992Z" fill="white"/>
<path d="M3.46201 39.8493C3.68842 39.8493 3.8729 39.6656 3.8729 39.4384C3.8729 39.212 3.68842 39.0283 3.46201 39.0283C3.2356 39.0283 3.05188 39.212 3.05188 39.4384C3.05188 39.6656 3.2356 39.8493 3.46201 39.8493Z" fill="white"/>
<path d="M4.04663 41.7496C4.27609 41.7496 4.46286 41.5628 4.46286 41.3326C4.46286 41.1032 4.27609 40.9164 4.04663 40.9164C3.81641 40.9164 3.62964 41.1032 3.62964 41.3326C3.62964 41.5628 3.81641 41.7496 4.04663 41.7496Z" fill="white"/>
<path d="M4.81676 43.5882C5.05384 43.5882 5.24519 43.3969 5.24519 43.1598C5.24519 42.9227 5.05384 42.7306 4.81676 42.7306C4.57968 42.7306 4.38757 42.9227 4.38757 43.1598C4.38757 43.3969 4.57968 43.5882 4.81676 43.5882Z" fill="white"/>
<path d="M5.76499 45.3356C6.00513 45.3356 6.19951 45.1412 6.19951 44.9011C6.19951 44.661 6.00513 44.4658 5.76499 44.4658C5.5241 44.4658 5.32971 44.661 5.32971 44.9011C5.32971 45.1412 5.5241 45.3356 5.76499 45.3356Z" fill="white"/>
<path d="M6.88181 46.986C7.1288 46.986 7.32853 46.7863 7.32853 46.5393C7.32853 46.2915 7.1288 46.0918 6.88181 46.0918C6.63482 46.0918 6.43433 46.2915 6.43433 46.5393C6.43433 46.7863 6.63482 46.986 6.88181 46.986Z" fill="white"/>
<path d="M8.15557 48.5176C8.41019 48.5176 8.61526 48.3118 8.61526 48.0579C8.61526 47.8041 8.41019 47.5983 8.15557 47.5983C7.90248 47.5983 7.69666 47.8041 7.69666 48.0579C7.69666 48.3118 7.90248 48.5176 8.15557 48.5176Z" fill="white"/>
<path d="M9.57502 49.9202C9.83879 49.9202 10.053 49.706 10.053 49.4422C10.053 49.1784 9.83879 48.9642 9.57502 48.9642C9.31126 48.9642 9.09705 49.1784 9.09705 49.4422C9.09705 49.706 9.31126 49.9202 9.57502 49.9202Z" fill="white"/>
<path d="M11.1256 51.1804C11.4031 51.1804 11.6272 50.9555 11.6272 50.678C11.6272 50.4005 11.4031 50.1757 11.1256 50.1757C10.8481 50.1757 10.6224 50.4005 10.6224 50.678C10.6224 50.9555 10.8481 51.1804 11.1256 51.1804Z" fill="white"/>
<path d="M12.7904 52.2752C13.0786 52.2752 13.3119 52.042 13.3119 51.7538C13.3119 51.4664 13.0786 51.2332 12.7904 51.2332C12.5031 51.2332 12.2698 51.4664 12.2698 51.7538C12.2698 52.042 12.5031 52.2752 12.7904 52.2752Z" fill="white"/>
<path d="M14.5555 53.1974C14.8528 53.1974 15.0944 52.9558 15.0944 52.6585C15.0944 52.3604 14.8528 52.1195 14.5555 52.1195C14.2574 52.1195 14.0157 52.3604 14.0157 52.6585C14.0157 52.9558 14.2574 53.1974 14.5555 53.1974Z" fill="white"/>
<path d="M16.4001 53.9459C16.7119 53.9459 16.9643 53.6936 16.9643 53.3826C16.9643 53.0708 16.7119 52.8192 16.4001 52.8192C16.0891 52.8192 15.8368 53.0708 15.8368 53.3826C15.8368 53.6936 16.0891 53.9459 16.4001 53.9459Z" fill="white"/>
<path d="M18.309 54.5079C18.6337 54.5079 18.8967 54.2449 18.8967 53.9194C18.8967 53.5947 18.6337 53.3317 18.309 53.3317C17.9842 53.3317 17.7205 53.5947 17.7205 53.9194C17.7205 54.2449 17.9842 54.5079 18.309 54.5079Z" fill="white"/>
<path d="M20.2612 54.87C20.5967 54.87 20.868 54.5986 20.868 54.2639C20.868 53.9293 20.5967 53.6571 20.2612 53.6571C19.9266 53.6571 19.6544 53.9293 19.6544 54.2639C19.6544 54.5986 19.9266 54.87 20.2612 54.87Z" fill="white"/>
<path d="M22.2379 55.0491C22.59 55.0491 22.8759 54.764 22.8759 54.4118C22.8759 54.0604 22.59 53.7745 22.2379 53.7745C21.8864 53.7745 21.6013 54.0604 21.6013 54.4118C21.6013 54.764 21.8864 55.0491 22.2379 55.0491Z" fill="white"/>
<path d="M24.22 55.0238C24.586 55.0238 24.8825 54.728 24.8825 54.3621C24.8825 53.9969 24.586 53.7012 24.22 53.7012C23.8549 53.7012 23.5583 53.9969 23.5583 54.3621C23.5583 54.728 23.8549 55.0238 24.22 55.0238Z" fill="white"/>
<path d="M26.1874 54.8022C26.5663 54.8022 26.8735 54.495 26.8735 54.1161C26.8735 53.7373 26.5663 53.4301 26.1874 53.4301C25.8086 53.4301 25.5013 53.7373 25.5013 54.1161C25.5013 54.495 25.8086 54.8022 26.1874 54.8022Z" fill="white"/>
<path d="M28.1208 54.3858C28.5134 54.3858 28.8313 54.0672 28.8313 53.6746C28.8313 53.282 28.5134 52.9641 28.1208 52.9641C27.7282 52.9641 27.4095 53.282 27.4095 53.6746C27.4095 54.0672 27.7282 54.3858 28.1208 54.3858Z" fill="white"/>
<path d="M29.9998 53.7784C30.4053 53.7784 30.7354 53.4498 30.7354 53.0435C30.7354 52.6372 30.4053 52.3079 29.9998 52.3079C29.5935 52.3079 29.2642 52.6372 29.2642 53.0435C29.2642 53.4498 29.5935 53.7784 29.9998 53.7784Z" fill="white"/>
<path d="M31.8074 52.9817C32.2229 52.9817 32.5606 52.644 32.5606 52.2278C32.5606 51.8116 32.2229 51.4746 31.8074 51.4746C31.3904 51.4746 31.0535 51.8116 31.0535 52.2278C31.0535 52.644 31.3904 52.9817 31.8074 52.9817Z" fill="white"/>
<path d="M33.5233 52.0153C33.9533 52.0153 34.3016 51.6669 34.3016 51.2369C34.3016 50.807 33.9533 50.4586 33.5233 50.4586C33.0941 50.4586 32.7457 50.807 32.7457 51.2369C32.7457 51.6669 33.0941 52.0153 33.5233 52.0153Z" fill="white"/>
<path d="M35.1333 50.8761C35.5732 50.8761 35.9299 50.5193 35.9299 50.0795C35.9299 49.6396 35.5732 49.2828 35.1333 49.2828C34.6934 49.2828 34.3367 49.6396 34.3367 50.0795C34.3367 50.5193 34.6934 50.8761 35.1333 50.8761Z" fill="white"/>
<path d="M36.6198 49.5826C37.0704 49.5826 37.4348 49.2174 37.4348 48.7677C37.4348 48.3179 37.0704 47.9528 36.6198 47.9528C36.1701 47.9528 35.8049 48.3179 35.8049 48.7677C35.8049 49.2174 36.1701 49.5826 36.6198 49.5826Z" fill="white"/>
<path d="M37.9685 48.1479C38.4289 48.1479 38.8017 47.7743 38.8017 47.3147C38.8017 46.8542 38.4289 46.4814 37.9685 46.4814C37.508 46.4814 37.1353 46.8542 37.1353 47.3147C37.1353 47.7743 37.508 48.1479 37.9685 48.1479Z" fill="white"/>
<path d="M39.1655 46.586C39.6366 46.586 40.0178 46.2048 40.0178 45.7345C40.0178 45.2634 39.6366 44.8822 39.1655 44.8822C38.6951 44.8822 38.314 45.2634 38.314 45.7345C38.314 46.2048 38.6951 46.586 39.1655 46.586Z" fill="white"/>
<path d="M40.1999 44.9058C40.6764 44.9058 41.0636 44.5193 41.0636 44.0421C41.0636 43.5648 40.6764 43.1783 40.1999 43.1783C39.7227 43.1783 39.3354 43.5648 39.3354 44.0421C39.3354 44.5193 39.7227 44.9058 40.1999 44.9058Z" fill="white"/>
<path d="M41.0597 43.1326C41.5438 43.1326 41.9364 42.74 41.9364 42.2559C41.9364 41.7726 41.5438 41.38 41.0597 41.38C40.5757 41.38 40.1838 41.7726 40.1838 42.2559C40.1838 42.74 40.5757 43.1326 41.0597 43.1326Z" fill="white"/>
<path d="M41.7374 41.2756C42.2252 41.2756 42.6201 40.8808 42.6201 40.3929C42.6201 39.9057 42.2252 39.5109 41.7374 39.5109C41.2502 39.5109 40.8553 39.9057 40.8553 40.3929C40.8553 40.8808 41.2502 41.2756 41.7374 41.2756Z" fill="white"/>
<path d="M42.2267 39.3599C42.7177 39.3599 43.1156 38.9627 43.1156 38.4718C43.1156 37.9808 42.7177 37.5829 42.2267 37.5829C41.7358 37.5829 41.3386 37.9808 41.3386 38.4718C41.3386 38.9627 41.7358 39.3599 42.2267 39.3599Z" fill="white"/>
<path d="M42.5227 37.406C43.0166 37.406 43.4169 37.005 43.4169 36.511C43.4169 36.017 43.0166 35.6168 42.5227 35.6168C42.0287 35.6168 41.6277 36.017 41.6277 36.511C41.6277 37.005 42.0287 37.406 42.5227 37.406Z" fill="white"/>
<path d="M42.621 35.4255C43.115 35.4255 43.516 35.0253 43.516 34.5313C43.516 34.0373 43.115 33.6364 42.621 33.6364C42.1278 33.6364 41.7268 34.0373 41.7268 34.5313C41.7268 35.0253 42.1278 35.4255 42.621 35.4255Z" fill="white"/>
<path d="M36.511 18.0705C36.9615 18.0705 37.3259 17.7054 37.3259 17.2549C37.3259 16.8051 36.9615 16.4399 36.511 16.4399C36.0612 16.4399 35.696 16.8051 35.696 17.2549C35.696 17.7054 36.0612 18.0705 36.511 18.0705Z" fill="white"/>
<path d="M38.0044 19.3931C38.4648 19.3931 38.8376 19.0196 38.8376 18.5599C38.8376 18.0995 38.4648 17.7267 38.0044 17.7267C37.5439 17.7267 37.1711 18.0995 37.1711 18.5599C37.1711 19.0196 37.5439 19.3931 38.0044 19.3931Z" fill="white"/>
<path d="M39.375 20.8447C39.8453 20.8447 40.2265 20.4635 40.2265 19.9931C40.2265 19.5228 39.8453 19.1409 39.375 19.1409C38.9039 19.1409 38.5227 19.5228 38.5227 19.9931C38.5227 20.4635 38.9039 20.8447 39.375 20.8447Z" fill="white"/>
<path d="M40.6107 22.4125C41.0917 22.4125 41.4812 22.0237 41.4812 21.5427C41.4812 21.0624 41.0917 20.6729 40.6107 20.6729C40.1304 20.6729 39.7408 21.0624 39.7408 21.5427C39.7408 22.0237 40.1304 22.4125 40.6107 22.4125Z" fill="white"/>
<path d="M41.703 24.08C42.1902 24.08 42.5858 23.6851 42.5858 23.198C42.5858 22.7108 42.1902 22.3152 41.703 22.3152C41.2159 22.3152 40.821 22.7108 40.821 23.198C40.821 23.6851 41.2159 24.08 41.703 24.08Z" fill="white"/>
<path d="M42.6429 25.8384C43.1369 25.8384 43.5371 25.4374 43.5371 24.9434C43.5371 24.4494 43.1369 24.0492 42.6429 24.0492C42.1481 24.0492 41.7479 24.4494 41.7479 24.9434C41.7479 25.4374 42.1481 25.8384 42.6429 25.8384Z" fill="white"/>
<path d="M43.422 27.6736C43.9229 27.6736 44.3292 27.268 44.3292 26.7671C44.3292 26.2663 43.9229 25.86 43.422 25.86C42.9212 25.86 42.5149 26.2663 42.5149 26.7671C42.5149 27.268 42.9212 27.6736 43.422 27.6736Z" fill="white"/>
<path d="M44.0344 29.5656C44.5391 29.5656 44.9477 29.157 44.9477 28.6524C44.9477 28.1485 44.5391 27.7399 44.0344 27.7399C43.5306 27.7399 43.1219 28.1485 43.1219 28.6524C43.1219 29.157 43.5306 29.5656 44.0344 29.5656Z" fill="white"/>
<path d="M44.4758 31.5049C44.9835 31.5049 45.3951 31.0932 45.3951 30.5855C45.3951 30.0778 44.9835 29.6661 44.4758 29.6661C43.9681 29.6661 43.5564 30.0778 43.5564 30.5855C43.5564 31.0932 43.9681 31.5049 44.4758 31.5049Z" fill="white"/>
<path d="M44.7426 33.4754C45.2534 33.4754 45.6673 33.0615 45.6673 32.5507C45.6673 32.0392 45.2534 31.6252 44.7426 31.6252C44.2311 31.6252 43.8171 32.0392 43.8171 32.5507C43.8171 33.0615 44.2311 33.4754 44.7426 33.4754Z" fill="white"/>
<path d="M34.907 16.8866C35.3468 16.8866 35.7036 16.5298 35.7036 16.09C35.7036 15.6498 35.3468 15.2932 34.907 15.2932C34.4671 15.2932 34.1104 15.6498 34.1104 16.09C34.1104 16.5298 34.4671 16.8866 34.907 16.8866Z" fill="white"/>
<path d="M33.2053 15.8504C33.6345 15.8504 33.9829 15.5024 33.9829 15.0726C33.9829 14.6428 33.6345 14.2944 33.2053 14.2944C32.7754 14.2944 32.427 14.6428 32.427 15.0726C32.427 15.5024 32.7754 15.8504 33.2053 15.8504Z" fill="white"/>
<path d="M31.4186 14.9662C31.8348 14.9662 32.1725 14.6288 32.1725 14.2126C32.1725 13.7963 31.8348 13.4589 31.4186 13.4589C31.0024 13.4589 30.6654 13.7963 30.6654 14.2126C30.6654 14.6288 31.0024 14.9662 31.4186 14.9662Z" fill="white"/>
<path d="M29.5625 14.2447C29.965 14.2447 30.2921 13.9182 30.2921 13.5155C30.2921 13.1129 29.965 12.7864 29.5625 12.7864C29.16 12.7864 28.8337 13.1129 28.8337 13.5155C28.8337 13.9182 29.16 14.2447 29.5625 14.2447Z" fill="white"/>
<path d="M27.6513 13.699C28.0439 13.699 28.3618 13.3809 28.3618 12.9883C28.3618 12.5957 28.0439 12.2775 27.6513 12.2775C27.2587 12.2775 26.9408 12.5957 26.9408 12.9883C26.9408 13.3809 27.2587 13.699 27.6513 13.699Z" fill="white"/>
<path d="M25.7004 13.3145C26.0754 13.3145 26.3804 13.01 26.3804 12.6344C26.3804 12.2588 26.0754 11.9542 25.7004 11.9542C25.3245 11.9542 25.0204 12.2588 25.0204 12.6344C25.0204 13.01 25.3245 13.3145 25.7004 13.3145Z" fill="white"/>
<path d="M23.7259 13.106C24.0842 13.106 24.3747 12.8153 24.3747 12.4565C24.3747 12.0978 24.0842 11.807 23.7259 11.807C23.3669 11.807 23.0764 12.0978 23.0764 12.4565C23.0764 12.8153 23.3669 13.106 23.7259 13.106Z" fill="white"/>
<path d="M21.7431 13.0878C22.0908 13.0878 22.3736 12.8052 22.3736 12.4567C22.3736 12.1081 22.0908 11.8256 21.7431 11.8256C21.394 11.8256 21.1119 12.1081 21.1119 12.4567C21.1119 12.8052 21.394 13.0878 21.7431 13.0878Z" fill="white"/>
<path d="M19.7681 13.2347C20.0997 13.2347 20.3688 12.9659 20.3688 12.6343C20.3688 12.3026 20.0997 12.0337 19.7681 12.0337C19.4365 12.0337 19.1674 12.3026 19.1674 12.6343C19.1674 12.9659 19.4365 13.2347 19.7681 13.2347Z" fill="white"/>
<path d="M17.8174 13.5705C18.1383 13.5705 18.3991 13.31 18.3991 12.9885C18.3991 12.6669 18.1383 12.4064 17.8174 12.4064C17.4957 12.4064 17.235 12.6669 17.235 12.9885C17.235 13.31 17.4957 13.5705 17.8174 13.5705Z" fill="white"/>
<path d="M15.906 14.0735C16.2133 14.0735 16.4633 13.8238 16.4633 13.5159C16.4633 13.2079 16.2133 12.9583 15.906 12.9583C15.5981 12.9583 15.348 13.2079 15.348 13.5159C15.348 13.8238 15.5981 14.0735 15.906 14.0735Z" fill="white"/>
<path d="M14.0492 14.7456C14.3442 14.7456 14.5828 14.5069 14.5828 14.2125C14.5828 13.9181 14.3442 13.6794 14.0492 13.6794C13.755 13.6794 13.5164 13.9181 13.5164 14.2125C13.5164 14.5069 13.755 14.7456 14.0492 14.7456Z" fill="white"/>
<path d="M12.263 15.5875C12.5473 15.5875 12.7775 15.3571 12.7775 15.0728C12.7775 14.7886 12.5473 14.5581 12.263 14.5581C11.9794 14.5581 11.7484 14.7886 11.7484 15.0728C11.7484 15.3571 11.9794 15.5875 12.263 15.5875Z" fill="white"/>
<path d="M10.5614 16.5802C10.832 16.5802 11.0515 16.3606 11.0515 16.09C11.0515 15.8194 10.832 15.5996 10.5614 15.5996C10.29 15.5996 10.0704 15.8194 10.0704 16.09C10.0704 16.3606 10.29 16.5802 10.5614 16.5802Z" fill="white"/>
<path d="M8.95683 17.7267C9.21754 17.7267 9.42871 17.5155 9.42871 17.2548C9.42871 16.9949 9.21754 16.7837 8.95683 16.7837C8.69688 16.7837 8.48572 16.9949 8.48572 17.2548C8.48572 17.5155 8.69688 17.7267 8.95683 17.7267Z" fill="white"/>
<path d="M7.46344 19.0135C7.71425 19.0135 7.91702 18.8099 7.91702 18.5599C7.91702 18.3091 7.71425 18.1063 7.46344 18.1063C7.2134 18.1063 7.01062 18.3091 7.01062 18.5599C7.01062 18.8099 7.2134 19.0135 7.46344 19.0135Z" fill="white"/>
<path d="M6.09346 20.4336C6.3374 20.4336 6.53483 20.2362 6.53483 19.993C6.53483 19.7491 6.3374 19.5516 6.09346 19.5516C5.85028 19.5516 5.65283 19.7491 5.65283 19.993C5.65283 20.2362 5.85028 20.4336 6.09346 20.4336Z" fill="white"/>
<path d="M4.85778 21.9719C5.0941 21.9719 5.2862 21.7798 5.2862 21.5427C5.2862 21.3056 5.0941 21.1135 4.85778 21.1135C4.62069 21.1135 4.42859 21.3056 4.42859 21.5427C4.42859 21.7798 4.62069 21.9719 4.85778 21.9719Z" fill="white"/>
<path d="M3.76551 23.6079C3.99192 23.6079 4.17564 23.4242 4.17564 23.1978C4.17564 22.9706 3.99192 22.7869 3.76551 22.7869C3.53833 22.7869 3.35461 22.9706 3.35461 23.1978C3.35461 23.4242 3.53833 23.6079 3.76551 23.6079Z" fill="white"/>
<path d="M2.82554 25.3485C3.0489 25.3485 3.23033 25.1671 3.23033 24.9437C3.23033 24.7203 3.0489 24.5397 2.82554 24.5397C2.60218 24.5397 2.42151 24.7203 2.42151 24.9437C2.42151 25.1671 2.60218 25.3485 2.82554 25.3485Z" fill="white"/>
<path d="M2.04625 27.1589C2.26275 27.1589 2.43809 26.9836 2.43809 26.7671C2.43809 26.5506 2.26275 26.3745 2.04625 26.3745C1.82975 26.3745 1.65442 26.5506 1.65442 26.7671C1.65442 26.9836 1.82975 27.1589 2.04625 27.1589Z" fill="white"/>
<path d="M1.43335 29.0386C1.6468 29.0386 1.81984 28.8655 1.81984 28.6521C1.81984 28.4394 1.6468 28.2664 1.43335 28.2664C1.22066 28.2664 1.04761 28.4394 1.04761 28.6521C1.04761 28.8655 1.22066 29.0386 1.43335 29.0386Z" fill="white"/>
<path d="M0.992702 30.9651C1.20234 30.9651 1.37234 30.7951 1.37234 30.5854C1.37234 30.3758 1.20234 30.2058 0.992702 30.2058C0.782302 30.2058 0.612305 30.3758 0.612305 30.5854C0.612305 30.7951 0.782302 30.9651 0.992702 30.9651Z" fill="white"/>
<path d="M0.726192 32.9304C0.936593 32.9304 1.10659 32.7604 1.10659 32.5508C1.10659 32.3404 0.936593 32.1704 0.726192 32.1704C0.516554 32.1704 0.346558 32.3404 0.346558 32.5508C0.346558 32.7604 0.516554 32.9304 0.726192 32.9304Z" fill="white"/>
<path d="M0.6376 34.9109C0.847238 34.9109 1.01723 34.7409 1.01723 34.5313C1.01723 34.3216 0.847238 34.1509 0.6376 34.1509C0.427961 34.1509 0.257202 34.3216 0.257202 34.5313C0.257202 34.7409 0.427961 34.9109 0.6376 34.9109Z" fill="white"/>
<path d="M0.726192 36.8915C0.936593 36.8915 1.10659 36.7215 1.10659 36.5118C1.10659 36.3022 0.936593 36.1322 0.726192 36.1322C0.516554 36.1322 0.346558 36.3022 0.346558 36.5118C0.346558 36.7215 0.516554 36.8915 0.726192 36.8915Z" fill="white"/>
<path d="M0.992702 38.8566C1.20234 38.8566 1.37234 38.6866 1.37234 38.4762C1.37234 38.2666 1.20234 38.0966 0.992702 38.0966C0.782302 38.0966 0.612305 38.2666 0.612305 38.4762C0.612305 38.6866 0.782302 38.8566 0.992702 38.8566Z" fill="white"/>
<path d="M1.43335 40.796C1.6468 40.796 1.81984 40.623 1.81984 40.4095C1.81984 40.1961 1.6468 40.0238 1.43335 40.0238C1.22066 40.0238 1.04761 40.1961 1.04761 40.4095C1.04761 40.623 1.22066 40.796 1.43335 40.796Z" fill="white"/>
<path d="M2.04625 42.6874C2.26275 42.6874 2.43809 42.5121 2.43809 42.2956C2.43809 42.0791 2.26275 41.903 2.04625 41.903C1.82975 41.903 1.65442 42.0791 1.65442 42.2956C1.65442 42.5121 1.82975 42.6874 2.04625 42.6874Z" fill="white"/>
<path d="M2.82554 44.5229C3.0489 44.5229 3.23033 44.3415 3.23033 44.1181C3.23033 43.8955 3.0489 43.7141 2.82554 43.7141C2.60218 43.7141 2.42151 43.8955 2.42151 44.1181C2.42151 44.3415 2.60218 44.5229 2.82554 44.5229Z" fill="white"/>
<path d="M3.76551 46.2749C3.99192 46.2749 4.17564 46.0912 4.17564 45.8647C4.17564 45.6376 3.99192 45.4539 3.76551 45.4539C3.53833 45.4539 3.35461 45.6376 3.35461 45.8647C3.35461 46.0912 3.53833 46.2749 3.76551 46.2749Z" fill="white"/>
<path d="M4.85778 47.9479C5.0941 47.9479 5.2862 47.7558 5.2862 47.5188C5.2862 47.2824 5.0941 47.0903 4.85778 47.0903C4.62069 47.0903 4.42859 47.2824 4.42859 47.5188C4.42859 47.7558 4.62069 47.9479 4.85778 47.9479Z" fill="white"/>
<path d="M6.09346 49.5107C6.3374 49.5107 6.53483 49.3133 6.53483 49.0693C6.53483 48.8254 6.3374 48.6279 6.09346 48.6279C5.85028 48.6279 5.65283 48.8254 5.65283 49.0693C5.65283 49.3133 5.85028 49.5107 6.09346 49.5107Z" fill="white"/>
<path d="M7.46344 50.9561C7.71425 50.9561 7.91702 50.7533 7.91702 50.5025C7.91702 50.2517 7.71425 50.049 7.46344 50.049C7.2134 50.049 7.01062 50.2517 7.01062 50.5025C7.01062 50.7533 7.2134 50.9561 7.46344 50.9561Z" fill="white"/>
<path d="M8.95683 52.2788C9.21754 52.2788 9.42871 52.0677 9.42871 51.807C9.42871 51.5462 9.21754 51.3351 8.95683 51.3351C8.69688 51.3351 8.48572 51.5462 8.48572 51.807C8.48572 52.0677 8.69688 52.2788 8.95683 52.2788Z" fill="white"/>
<path d="M10.5614 53.4628C10.832 53.4628 11.0515 53.2432 11.0515 52.9726C11.0515 52.702 10.832 52.4824 10.5614 52.4824C10.29 52.4824 10.0704 52.702 10.0704 52.9726C10.0704 53.2432 10.29 53.4628 10.5614 53.4628Z" fill="white"/>
<path d="M12.263 54.504C12.5473 54.504 12.7775 54.2738 12.7775 53.9894C12.7775 53.7051 12.5473 53.4749 12.263 53.4749C11.9794 53.4749 11.7484 53.7051 11.7484 53.9894C11.7484 54.2738 11.9794 54.504 12.263 54.504Z" fill="white"/>
<path d="M14.0492 55.3829C14.3442 55.3829 14.5828 55.1443 14.5828 54.85C14.5828 54.555 14.3442 54.3164 14.0492 54.3164C13.755 54.3164 13.5164 54.555 13.5164 54.85C13.5164 55.1443 13.755 55.3829 14.0492 55.3829Z" fill="white"/>
<path d="M15.906 56.1043C16.2133 56.1043 16.4633 55.8543 16.4633 55.5463C16.4633 55.2383 16.2133 54.989 15.906 54.989C15.5981 54.989 15.348 55.2383 15.348 55.5463C15.348 55.8543 15.5981 56.1043 15.906 56.1043Z" fill="white"/>
<path d="M17.8174 56.6561C18.1383 56.6561 18.3991 56.3954 18.3991 56.0737C18.3991 55.752 18.1383 55.4921 17.8174 55.4921C17.4957 55.4921 17.235 55.752 17.235 56.0737C17.235 56.3954 17.4957 56.6561 17.8174 56.6561Z" fill="white"/>
<path d="M19.7681 57.0282C20.0997 57.0282 20.3688 56.7598 20.3688 56.4282C20.3688 56.0959 20.0997 55.8275 19.7681 55.8275C19.4365 55.8275 19.1674 56.0959 19.1674 56.4282C19.1674 56.7598 19.4365 57.0282 19.7681 57.0282Z" fill="white"/>
<path d="M21.7431 57.2369C22.0908 57.2369 22.3736 56.9541 22.3736 56.6057C22.3736 56.2573 22.0908 55.9745 21.7431 55.9745C21.394 55.9745 21.1119 56.2573 21.1119 56.6057C21.1119 56.9541 21.394 57.2369 21.7431 57.2369Z" fill="white"/>
<path d="M23.7259 57.2551C24.0842 57.2551 24.3747 56.9638 24.3747 56.6056C24.3747 56.2465 24.0842 55.9561 23.7259 55.9561C23.3669 55.9561 23.0764 56.2465 23.0764 56.6056C23.0764 56.9638 23.3669 57.2551 23.7259 57.2551Z" fill="white"/>
<path d="M25.7004 57.1083C26.0754 57.1083 26.3804 56.8041 26.3804 56.4283C26.3804 56.0525 26.0754 55.7483 25.7004 55.7483C25.3245 55.7483 25.0204 56.0525 25.0204 56.4283C25.0204 56.8041 25.3245 57.1083 25.7004 57.1083Z" fill="white"/>
<path d="M27.6513 56.784C28.0439 56.784 28.3618 56.4661 28.3618 56.0735C28.3618 55.6809 28.0439 55.363 27.6513 55.363C27.2587 55.363 26.9408 55.6809 26.9408 56.0735C26.9408 56.4661 27.2587 56.784 27.6513 56.784Z" fill="white"/>
<path d="M29.5625 56.2755C29.965 56.2755 30.2921 55.9492 30.2921 55.5459C30.2921 55.1434 29.965 54.8171 29.5625 54.8171C29.16 54.8171 28.8337 55.1434 28.8337 55.5459C28.8337 55.9492 29.16 56.2755 29.5625 56.2755Z" fill="white"/>
<path d="M31.4186 55.6033C31.8348 55.6033 32.1725 55.2656 32.1725 54.8501C32.1725 54.4331 31.8348 54.0962 31.4186 54.0962C31.0024 54.0962 30.6654 54.4331 30.6654 54.8501C30.6654 55.2656 31.0024 55.6033 31.4186 55.6033Z" fill="white"/>
<path d="M33.2053 54.768C33.6345 54.768 33.9829 54.4196 33.9829 53.9896C33.9829 53.5597 33.6345 53.2113 33.2053 53.2113C32.7754 53.2113 32.427 53.5597 32.427 53.9896C32.427 54.4196 32.7754 54.768 33.2053 54.768Z" fill="white"/>
<path d="M34.907 53.7693C35.3468 53.7693 35.7036 53.4125 35.7036 52.9726C35.7036 52.5328 35.3468 52.176 34.907 52.176C34.4671 52.176 34.1104 52.5328 34.1104 52.9726C34.1104 53.4125 34.4671 53.7693 34.907 53.7693Z" fill="white"/>
<path d="M36.511 52.6219C36.9615 52.6219 37.3259 52.2568 37.3259 51.807C37.3259 51.3565 36.9615 50.9921 36.511 50.9921C36.0612 50.9921 35.696 51.3565 35.696 51.807C35.696 52.2568 36.0612 52.6219 36.511 52.6219Z" fill="white"/>
<path d="M38.0044 51.3359C38.4648 51.3359 38.8376 50.9631 38.8376 50.5026C38.8376 50.0422 38.4648 49.6694 38.0044 49.6694C37.5439 49.6694 37.1711 50.0422 37.1711 50.5026C37.1711 50.9631 37.5439 51.3359 38.0044 51.3359Z" fill="white"/>
<path d="M39.375 49.921C39.8453 49.921 40.2265 49.5399 40.2265 49.0695C40.2265 48.5992 39.8453 48.218 39.375 48.218C38.9039 48.218 38.5227 48.5992 38.5227 49.0695C38.5227 49.5399 38.9039 49.921 39.375 49.921Z" fill="white"/>
<path d="M40.6107 48.3895C41.0917 48.3895 41.4812 48 41.4812 47.519C41.4812 47.0387 41.0917 46.6492 40.6107 46.6492C40.1304 46.6492 39.7408 47.0387 39.7408 47.519C39.7408 48 40.1304 48.3895 40.6107 48.3895Z" fill="white"/>
<path d="M41.703 46.7467C42.1902 46.7467 42.5858 46.3518 42.5858 45.8647C42.5858 45.3776 42.1902 44.9819 41.703 44.9819C41.2159 44.9819 40.821 45.3776 40.821 45.8647C40.821 46.3518 41.2159 46.7467 41.703 46.7467Z" fill="white"/>
<path d="M42.6429 45.013C43.1369 45.013 43.5371 44.6128 43.5371 44.1181C43.5371 43.6241 43.1369 43.2239 42.6429 43.2239C42.1481 43.2239 41.7479 43.6241 41.7479 44.1181C41.7479 44.6128 42.1481 45.013 42.6429 45.013Z" fill="white"/>
<path d="M43.422 43.2016C43.9229 43.2016 44.3292 42.7961 44.3292 42.2952C44.3292 41.7944 43.9229 41.3881 43.422 41.3881C42.9212 41.3881 42.5149 41.7944 42.5149 42.2952C42.5149 42.7961 42.9212 43.2016 43.422 43.2016Z" fill="white"/>
<path d="M44.0344 41.3227C44.5391 41.3227 44.9477 40.9141 44.9477 40.4094C44.9477 39.9056 44.5391 39.4969 44.0344 39.4969C43.5306 39.4969 43.1219 39.9056 43.1219 40.4094C43.1219 40.9141 43.5306 41.3227 44.0344 41.3227Z" fill="white"/>
<path d="M44.4758 39.3955C44.9835 39.3955 45.3951 38.9838 45.3951 38.4761C45.3951 37.9691 44.9835 37.5575 44.4758 37.5575C43.9681 37.5575 43.5564 37.9691 43.5564 38.4761C43.5564 38.9838 43.9681 39.3955 44.4758 39.3955Z" fill="white"/>
<path d="M44.7426 37.4373C45.2534 37.4373 45.6673 37.0226 45.6673 36.5119C45.6673 36.0011 45.2534 35.5864 44.7426 35.5864C44.2311 35.5864 43.8171 36.0011 43.8171 36.5119C43.8171 37.0226 44.2311 37.4373 44.7426 37.4373Z" fill="white"/>
<path d="M44.8308 35.4561C45.3416 35.4561 45.7563 35.0422 45.7563 34.5314C45.7563 34.0207 45.3416 33.606 44.8308 33.606C44.3201 33.606 43.9054 34.0207 43.9054 34.5314C43.9054 35.0422 44.3201 35.4561 44.8308 35.4561Z" fill="white"/>
</svg>
